<?xml version="1.0" encoding="UTF-8"?>
<svg xmlns="http://www.w3.org/2000/svg" xmlns:xlink="http://www.w3.org/1999/xlink" width="1920" height="1080" viewBox="0 0 1920 1080">
<defs>
<g>
<g id="glyph-0-0">
<path d="M 2.609375 -6.15625 L 7.375 -6.15625 L 7.375 -0.855469 L 6.648438 -0.855469 L 6.648438 -1.34375 L 3.328125 -1.34375 L 3.328125 -0.738281 L 2.609375 -0.738281 L 2.609375 -6.15625 M 9.160156 -5.960938 L 9.160156 1.265625 L 8.417969 1.265625 L 8.417969 0.738281 L 0.820312 0.738281 L 0.820312 -5.960938 L 1.5625 -5.960938 L 1.5625 0.0742188 L 8.417969 0.0742188 L 8.417969 -5.960938 L 9.160156 -5.960938 M 0.292969 -7.71875 L 9.6875 -7.71875 L 9.6875 -7.054688 L 0.292969 -7.054688 L 0.292969 -7.71875 M 6.648438 -5.503906 L 5.351562 -5.503906 L 5.351562 -4.078125 L 6.648438 -4.078125 L 6.648438 -5.503906 M 3.328125 -4.078125 L 4.628906 -4.078125 L 4.628906 -5.503906 L 3.328125 -5.503906 L 3.328125 -4.078125 M 3.328125 -1.996094 L 4.628906 -1.996094 L 4.628906 -3.421875 L 3.328125 -3.421875 L 3.328125 -1.996094 M 5.351562 -1.996094 L 6.648438 -1.996094 L 6.648438 -3.421875 L 5.351562 -3.421875 Z "/>
</g>
<g id="glyph-0-1">
<path d="M 0.15625 -4.222656 L 9.863281 -4.222656 L 9.863281 -3.363281 L 0.15625 -3.363281 Z "/>
</g>
<g id="glyph-0-2">
<path d="M 4.550781 -4.730469 L 5.4375 -4.730469 L 5.4375 1.3125 L 4.550781 1.3125 L 4.550781 -4.730469 M 5.625 -8.089844 L 5.476562 -7.867188 C 6.53125 -6.128906 8 -4.882812 9.875 -4.136719 C 9.671875 -3.816406 9.5 -3.523438 9.355469 -3.257812 C 7.441406 -4.257812 5.992188 -5.550781 5.007812 -7.132812 C 4.046875 -5.628906 2.585938 -4.292969 0.625 -3.121094 C 0.480469 -3.355469 0.316406 -3.613281 0.125 -3.890625 C 2.15625 -5.019531 3.667969 -6.417969 4.65625 -8.089844 Z "/>
</g>
<g id="glyph-0-3">
<path d="M 0.671875 -7.886719 L 9.289062 -7.886719 L 9.289062 1.304688 L 8.554688 1.304688 L 8.554688 0.835938 L 1.40625 0.835938 L 1.40625 1.304688 L 0.671875 1.304688 L 0.671875 -7.886719 M 2.753906 -6.597656 L 7.246094 -6.597656 L 7.246094 -4.429688 L 6.582031 -4.429688 L 6.582031 -4.652344 L 3.417969 -4.652344 L 3.417969 -4.429688 L 2.753906 -4.429688 L 2.753906 -6.597656 M 5.214844 -2.152344 C 6.183594 -1.660156 7.101562 -1.140625 7.96875 -0.601562 L 7.539062 -0.0429688 C 6.816406 -0.546875 5.976562 -1.0625 5.019531 -1.597656 C 4.714844 -0.894531 3.757812 -0.390625 2.148438 -0.0820312 C 2.0625 -0.265625 1.941406 -0.480469 1.789062 -0.726562 C 3.121094 -0.941406 3.953125 -1.269531 4.277344 -1.714844 C 4.53125 -2.027344 4.652344 -2.515625 4.640625 -3.179688 L 5.320312 -3.179688 C 5.320312 -2.792969 5.285156 -2.453125 5.214844 -2.152344 M 2.480469 -4.019531 L 7.480469 -4.019531 L 7.480469 -1.65625 L 6.816406 -1.65625 L 6.816406 -3.414062 L 3.144531 -3.414062 L 3.144531 -1.578125 L 2.480469 -1.578125 L 2.480469 -4.019531 M 6.582031 -5.257812 L 6.582031 -5.992188 L 3.417969 -5.992188 L 3.417969 -5.257812 L 6.582031 -5.257812 M 8.554688 0.152344 L 8.554688 -7.203125 L 1.40625 -7.203125 L 1.40625 0.152344 Z "/>
</g>
<g id="glyph-0-4">
<path d="M 3.015625 -1.210938 L 2.191406 1.390625 L 1.507812 1.390625 L 2.109375 -1.210938 Z "/>
</g>
<g id="glyph-0-5">
<path d="M 2.664062 -6.429688 L 3.476562 -6.429688 L 3.476562 -0.707031 C 3.476562 -0.117188 3.742188 0.179688 4.265625 0.179688 L 6.367188 0.179688 C 6.925781 0.179688 7.242188 -0.0546875 7.3125 -0.523438 C 7.386719 -0.933594 7.449219 -1.425781 7.5 -1.996094 C 7.773438 -1.886719 8.054688 -1.78125 8.339844 -1.683594 C 8.242188 -1 8.152344 -0.488281 8.066406 -0.152344 C 7.890625 0.578125 7.375 0.941406 6.523438 0.941406 L 4.070312 0.941406 C 3.132812 0.941406 2.664062 0.453125 2.664062 -0.523438 L 2.664062 -6.429688 M 8.171875 -5.6875 C 8.726562 -4.640625 9.304688 -3.449219 9.902344 -2.113281 L 9.09375 -1.714844 C 8.589844 -2.976562 8.039062 -4.1875 7.441406 -5.347656 L 8.171875 -5.6875 M 1.230469 -5.386719 L 2.011719 -5.171875 C 1.710938 -3.785156 1.355469 -2.4375 0.9375 -1.128906 L 0.15625 -1.429688 C 0.585938 -2.65625 0.945312 -3.972656 1.230469 -5.386719 M 4.8125 -8.394531 C 5.433594 -7.363281 5.957031 -6.4375 6.386719 -5.609375 C 6.082031 -5.453125 5.820312 -5.3125 5.605469 -5.191406 C 5.148438 -6.199219 4.65625 -7.148438 4.132812 -8.042969 Z "/>
</g>
<g id="glyph-0-6">
<path d="M 0.554688 -5.757812 L 4.222656 -5.757812 C 4.316406 -6.554688 4.363281 -7.417969 4.367188 -8.34375 L 5.203125 -8.34375 C 5.203125 -7.378906 5.160156 -6.515625 5.070312 -5.757812 L 9.21875 -5.757812 C 9.179688 -3.746094 9.121094 -2.085938 9.042969 -0.777344 C 8.976562 0.441406 8.332031 1.050781 7.109375 1.050781 C 6.601562 1.050781 6 1.035156 5.304688 1 C 5.277344 0.746094 5.226562 0.445312 5.15625 0.09375 C 5.769531 0.175781 6.371094 0.21875 6.960938 0.21875 C 7.742188 0.21875 8.15625 -0.164062 8.195312 -0.933594 C 8.285156 -2.207031 8.34375 -3.5625 8.367188 -4.996094 L 4.960938 -4.996094 C 4.484375 -2.125 3.144531 0.0117188 0.945312 1.410156 C 0.765625 1.183594 0.566406 0.941406 0.351562 0.6875 C 2.375 -0.507812 3.628906 -2.402344 4.105469 -4.996094 L 0.554688 -4.996094 L 0.554688 -5.757812 M 5.195312 -3.238281 L 5.734375 -3.714844 C 6.359375 -3.136719 6.921875 -2.566406 7.429688 -2.007812 L 6.828125 -1.460938 C 6.324219 -2.050781 5.78125 -2.644531 5.195312 -3.238281 M 1.25 -7.691406 L 1.777344 -8.179688 C 2.316406 -7.710938 2.839844 -7.226562 3.339844 -6.734375 L 2.742188 -6.175781 C 2.261719 -6.703125 1.765625 -7.207031 1.25 -7.691406 Z "/>
</g>
<g id="glyph-0-7">
<path d="M 0.488281 -3.691406 C 0.488281 -4.910156 0.820312 -5.882812 1.480469 -6.605469 C 2.140625 -7.328125 3.035156 -7.691406 4.164062 -7.691406 C 5.214844 -7.691406 6.0625 -7.335938 6.703125 -6.632812 C 7.34375 -5.925781 7.664062 -5.003906 7.664062 -3.871094 C 7.664062 -2.644531 7.335938 -1.671875 6.679688 -0.953125 C 6.023438 -0.234375 5.144531 0.125 4.042969 0.125 C 2.96875 0.125 2.109375 -0.226562 1.460938 -0.933594 C 0.8125 -1.640625 0.488281 -2.558594 0.488281 -3.691406 M 1.515625 -3.769531 C 1.515625 -2.855469 1.746094 -2.121094 2.214844 -1.570312 C 2.679688 -1.019531 3.289062 -0.742188 4.042969 -0.742188 C 4.851562 -0.742188 5.484375 -1.007812 5.945312 -1.535156 C 6.40625 -2.066406 6.636719 -2.804688 6.636719 -3.753906 C 6.636719 -4.730469 6.410156 -5.484375 5.960938 -6.015625 C 5.507812 -6.546875 4.890625 -6.8125 4.105469 -6.8125 C 3.335938 -6.8125 2.710938 -6.53125 2.230469 -5.972656 C 1.753906 -5.410156 1.515625 -4.679688 1.515625 -3.769531 Z "/>
</g>
</g>
</defs>
<g fill="rgb(100%, 100%, 100%)" fill-opacity="1">
<use xlink:href="#glyph-0-0" x="30" y="30.581055"/>
<use xlink:href="#glyph-0-1" x="40" y="30.581055"/>
<use xlink:href="#glyph-0-2" x="50" y="30.581055"/>
<use xlink:href="#glyph-0-3" x="60" y="30.581055"/>
<use xlink:href="#glyph-0-4" x="70" y="30.581055"/>
<use xlink:href="#glyph-0-3" x="80" y="30.581055"/>
<use xlink:href="#glyph-0-5" x="90" y="30.581055"/>
<use xlink:href="#glyph-0-6" x="100" y="30.581055"/>
</g>
<g fill="rgb(100%, 100%, 100%)" fill-opacity="1">
<use xlink:href="#glyph-0-7" x="110" y="30.581055"/>
</g>
</svg>
