<?xml version="1.0" encoding="UTF-8"?>
<svg xmlns="http://www.w3.org/2000/svg" xmlns:xlink="http://www.w3.org/1999/xlink" width="1920" height="1080" viewBox="0 0 1920 1080">
<defs>
<g>
<g id="glyph-0-0">
<path d="M 3.140625 -3.261719 C 3.140625 -3.132812 3.109375 -3.019531 3.046875 -2.917969 C 2.980469 -2.820312 2.886719 -2.769531 2.753906 -2.769531 C 2.613281 -2.769531 2.503906 -2.804688 2.429688 -2.878906 C 2.355469 -2.953125 2.316406 -3.03125 2.316406 -3.121094 C 2.316406 -3.175781 2.320312 -3.226562 2.328125 -3.273438 C 2.339844 -3.320312 2.347656 -3.363281 2.355469 -3.410156 C 2.234375 -3.410156 2.097656 -3.363281 1.9375 -3.265625 C 1.777344 -3.167969 1.640625 -3.03125 1.53125 -2.855469 L 1.53125 -0.675781 C 1.53125 -0.585938 1.546875 -0.515625 1.582031 -0.460938 C 1.617188 -0.402344 1.667969 -0.363281 1.742188 -0.335938 C 1.804688 -0.308594 1.886719 -0.289062 1.988281 -0.277344 C 2.089844 -0.265625 2.175781 -0.253906 2.25 -0.25 L 2.25 0 L 0.273438 0 L 0.273438 -0.25 C 0.332031 -0.253906 0.390625 -0.261719 0.453125 -0.265625 C 0.515625 -0.269531 0.570312 -0.28125 0.613281 -0.296875 C 0.6875 -0.320312 0.738281 -0.359375 0.773438 -0.414062 C 0.808594 -0.472656 0.824219 -0.546875 0.824219 -0.636719 L 0.824219 -2.949219 C 0.824219 -3.027344 0.804688 -3.101562 0.769531 -3.179688 C 0.730469 -3.253906 0.679688 -3.316406 0.613281 -3.359375 C 0.566406 -3.390625 0.511719 -3.414062 0.445312 -3.425781 C 0.378906 -3.441406 0.308594 -3.449219 0.230469 -3.457031 L 0.230469 -3.707031 L 1.476562 -3.789062 L 1.53125 -3.738281 L 1.53125 -3.207031 L 1.550781 -3.207031 C 1.707031 -3.414062 1.882812 -3.570312 2.074219 -3.675781 C 2.265625 -3.78125 2.441406 -3.835938 2.601562 -3.835938 C 2.761719 -3.835938 2.890625 -3.785156 2.992188 -3.679688 C 3.089844 -3.574219 3.140625 -3.4375 3.140625 -3.261719 Z "/>
</g>
<g id="glyph-0-1">
</g>
<g id="glyph-0-2">
<path d="M 4.417969 -2.59375 L 0.585938 -2.59375 L 0.585938 -3.070312 L 4.417969 -3.070312 L 4.417969 -2.59375 M 4.417969 -1.179688 L 0.585938 -1.179688 L 0.585938 -1.65625 L 4.417969 -1.65625 Z "/>
</g>
<g id="glyph-0-3">
<path d="M 3.199219 -1.78125 C 3.367188 -1.648438 3.507812 -1.480469 3.617188 -1.273438 C 3.726562 -1.066406 3.78125 -0.804688 3.78125 -0.492188 C 3.78125 0.0507812 3.597656 0.5 3.222656 0.855469 C 2.851562 1.207031 2.378906 1.386719 1.808594 1.386719 C 1.363281 1.386719 0.988281 1.28125 0.683594 1.070312 C 0.378906 0.859375 0.222656 0.617188 0.222656 0.339844 C 0.222656 0.207031 0.253906 0.0976562 0.320312 0 C 0.382812 -0.0976562 0.480469 -0.144531 0.613281 -0.144531 C 0.761719 -0.144531 0.878906 -0.105469 0.957031 -0.0234375 C 1.039062 0.0546875 1.078125 0.140625 1.078125 0.234375 C 1.078125 0.316406 1.066406 0.417969 1.035156 0.539062 C 1.007812 0.660156 0.988281 0.75 0.972656 0.808594 C 0.992188 0.828125 1.023438 0.851562 1.070312 0.882812 C 1.117188 0.910156 1.171875 0.941406 1.234375 0.96875 C 1.300781 0.996094 1.378906 1.019531 1.476562 1.042969 C 1.570312 1.0625 1.679688 1.074219 1.808594 1.074219 C 1.96875 1.074219 2.121094 1.042969 2.265625 0.976562 C 2.410156 0.910156 2.53125 0.8125 2.632812 0.683594 C 2.742188 0.542969 2.820312 0.378906 2.875 0.199219 C 2.929688 0.0195312 2.957031 -0.210938 2.957031 -0.488281 C 2.957031 -0.847656 2.859375 -1.140625 2.660156 -1.375 C 2.460938 -1.609375 2.199219 -1.726562 1.875 -1.726562 C 1.671875 -1.726562 1.484375 -1.691406 1.308594 -1.613281 C 1.132812 -1.539062 0.976562 -1.410156 0.835938 -1.234375 L 0.582031 -1.332031 L 0.902344 -4.074219 L 3.621094 -4.074219 L 3.621094 -3.398438 L 1.210938 -3.398438 L 1.011719 -1.789062 C 1.128906 -1.871094 1.277344 -1.949219 1.464844 -2.03125 C 1.648438 -2.109375 1.855469 -2.148438 2.078125 -2.148438 C 2.261719 -2.148438 2.453125 -2.121094 2.652344 -2.0625 C 2.851562 -2.007812 3.035156 -1.914062 3.199219 -1.78125 Z "/>
</g>
</g>
</defs>
<g fill="rgb(100%, 75.686275%, 2.745098%)" fill-opacity="1">
<use xlink:href="#glyph-0-0" x="30" y="27.131836"/>
<use xlink:href="#glyph-0-1" x="33" y="27.131836"/>
<use xlink:href="#glyph-0-2" x="35" y="27.131836"/>
<use xlink:href="#glyph-0-1" x="40" y="27.131836"/>
<use xlink:href="#glyph-0-3" x="42" y="27.131836"/>
</g>
</svg>
