<?xml version="1.0" encoding="UTF-8"?>
<svg xmlns="http://www.w3.org/2000/svg" xmlns:xlink="http://www.w3.org/1999/xlink" width="1920" height="1080" viewBox="0 0 1920 1080">
<defs>
<g>
<g id="glyph-0-0">
<path d="M 5.546875 -16.328125 L 7.34375 -15.234375 L 6.5625 -14.84375 L 5.390625 -12.734375 L 16.25 -12.734375 L 17.03125 -13.515625 L 18.125 -12.421875 L 17.5 -11.875 C 17.238281 -5.3125 17.019531 -1.667969 16.835938 -0.9375 C 16.652344 -0.207031 16.378906 0.363281 16.015625 0.78125 C 15.652344 1.199219 15.078125 1.589844 14.296875 1.953125 C 14.035156 0.964844 12.941406 0.3125 11.015625 0 L 11.09375 -0.390625 C 13.074219 -0.078125 14.285156 0.0390625 14.726562 -0.0390625 C 15.167969 -0.117188 15.496094 -0.585938 15.703125 -1.445312 C 15.910156 -2.304688 16.121094 -5.910156 16.328125 -12.265625 L 5.234375 -12.265625 C 3.933594 -10.128906 2.527344 -8.464844 1.015625 -7.265625 L 0.859375 -7.5 C 1.902344 -8.699219 2.839844 -10.105469 3.671875 -11.71875 C 4.503906 -13.332031 5.128906 -14.871094 5.546875 -16.328125 M 8.4375 -10.9375 L 10 -9.765625 L 9.21875 -9.296875 C 7.65625 -6.746094 6.300781 -4.871094 5.15625 -3.671875 C 8.28125 -3.828125 10.597656 -3.957031 12.109375 -4.0625 C 11.484375 -5.050781 10.886719 -5.859375 10.3125 -6.484375 L 10.546875 -6.71875 C 11.171875 -6.25 11.863281 -5.703125 12.617188 -5.078125 C 13.371094 -4.453125 13.789062 -3.90625 13.867188 -3.4375 C 13.945312 -2.96875 13.867188 -2.617188 13.632812 -2.382812 C 13.398438 -2.148438 13.230469 -2.03125 13.125 -2.03125 C 13.019531 -2.03125 12.941406 -2.136719 12.890625 -2.34375 C 12.734375 -2.65625 12.527344 -3.125 12.265625 -3.75 C 7.683594 -3.125 5.128906 -2.550781 4.609375 -2.03125 L 3.75 -3.671875 C 4.269531 -3.777344 4.738281 -4.089844 5.15625 -4.609375 C 5.574219 -5.128906 6.160156 -6.082031 6.914062 -7.460938 C 7.667969 -8.839844 8.175781 -10 8.4375 -10.9375 Z "/>
</g>
<g id="glyph-0-1">
<path d="M 17.1875 -10.390625 C 17.65625 -10.390625 17.96875 -10.46875 18.125 -10.625 C 18.28125 -10.730469 18.4375 -10.675781 18.59375 -10.46875 C 18.75 -10.261719 18.855469 -10.078125 18.90625 -9.921875 C 18.957031 -9.765625 18.878906 -9.660156 18.671875 -9.609375 C 18.464844 -9.558594 18.175781 -9.53125 17.8125 -9.53125 L 15.78125 -9.53125 C 14.949219 -9.53125 14.53125 -9.949219 14.53125 -10.78125 L 14.53125 -14.0625 L 11.40625 -14.0625 C 11.40625 -12.550781 11.238281 -11.339844 10.898438 -10.429688 C 10.558594 -9.519531 9.660156 -8.621094 8.203125 -7.734375 L 8.046875 -7.96875 C 9.246094 -8.90625 9.933594 -9.949219 10.117188 -11.09375 C 10.300781 -12.238281 10.339844 -13.671875 10.234375 -15.390625 L 11.484375 -14.53125 L 14.53125 -14.53125 L 15.234375 -15.234375 L 16.25 -14.21875 L 15.625 -13.828125 L 15.625 -11.09375 C 15.625 -10.625 15.886719 -10.390625 16.40625 -10.390625 L 17.1875 -10.390625 M 16.328125 -7.109375 C 15.652344 -5.128906 14.765625 -3.410156 13.671875 -1.953125 C 14.246094 -1.433594 14.960938 -0.976562 15.820312 -0.585938 C 16.679688 -0.195312 17.605469 0.078125 18.59375 0.234375 L 18.59375 0.46875 C 17.761719 0.574219 17.265625 0.886719 17.109375 1.40625 C 16.015625 0.9375 15.167969 0.480469 14.570312 0.0390625 C 13.972656 -0.402344 13.4375 -0.859375 12.96875 -1.328125 C 11.875 -0.390625 10.832031 0.324219 9.84375 0.820312 C 8.855469 1.316406 7.996094 1.640625 7.265625 1.796875 L 7.1875 1.5625 C 8.074219 1.144531 8.957031 0.652344 9.84375 0.078125 C 10.730469 -0.496094 11.5625 -1.171875 12.34375 -1.953125 C 11.40625 -3.621094 10.808594 -5.46875 10.546875 -7.5 L 9.84375 -7.265625 L 9.21875 -7.96875 L 15.3125 -7.96875 L 16.015625 -8.671875 L 17.109375 -7.578125 L 16.328125 -7.109375 M 10.9375 -7.5 C 11.300781 -5.625 11.980469 -4.035156 12.96875 -2.734375 C 13.90625 -3.933594 14.6875 -5.519531 15.3125 -7.5 L 10.9375 -7.5 M 3.75 -14.296875 L 3.75 -10.703125 L 6.640625 -10.703125 L 6.640625 -14.296875 L 3.75 -14.296875 M 3.75 -10.234375 L 3.75 -6.640625 L 6.640625 -6.640625 L 6.640625 -10.234375 L 3.75 -10.234375 M 0.78125 1.640625 C 1.457031 0.546875 1.925781 -0.558594 2.1875 -1.679688 C 2.449219 -2.800781 2.605469 -4.035156 2.65625 -5.390625 C 2.707031 -6.746094 2.722656 -8.605469 2.695312 -10.976562 C 2.667969 -13.347656 2.628906 -14.816406 2.578125 -15.390625 L 3.75 -14.765625 L 6.5625 -14.765625 L 7.265625 -15.46875 L 8.28125 -14.453125 L 7.734375 -13.984375 L 7.734375 -0.859375 C 7.734375 -0.285156 7.605469 0.15625 7.34375 0.46875 C 7.082031 0.78125 6.667969 1.066406 6.09375 1.328125 C 5.988281 0.597656 5.339844 0.105469 4.140625 -0.15625 L 4.140625 -0.46875 C 5.183594 -0.363281 5.859375 -0.324219 6.171875 -0.351562 C 6.484375 -0.378906 6.640625 -0.652344 6.640625 -1.171875 L 6.640625 -6.171875 L 3.75 -6.171875 C 3.699219 -4.402344 3.488281 -2.917969 3.125 -1.71875 C 2.761719 -0.519531 2.058594 0.652344 1.015625 1.796875 Z "/>
</g>
<g id="glyph-0-2">
<path d="M 6.171875 -5.546875 C 5.964844 -4.871094 5.808594 -4.269531 5.703125 -3.75 C 6.222656 -2.917969 6.824219 -2.226562 7.5 -1.679688 C 8.175781 -1.132812 8.828125 -0.753906 9.453125 -0.546875 L 9.453125 -8.59375 L 5.078125 -8.59375 C 4.402344 -8.59375 3.777344 -8.515625 3.203125 -8.359375 L 2.5 -9.0625 L 14.6875 -9.0625 L 15.78125 -10.15625 L 17.34375 -8.59375 L 10.546875 -8.59375 L 10.546875 -4.765625 L 14.0625 -4.765625 L 15.078125 -5.78125 L 16.5625 -4.296875 L 10.546875 -4.296875 L 10.546875 -0.234375 C 12.003906 0.0273438 13.4375 0.144531 14.84375 0.117188 C 16.25 0.0898438 17.527344 0.0273438 18.671875 -0.078125 L 18.671875 0.234375 C 17.785156 0.390625 17.238281 0.808594 17.03125 1.484375 C 14.324219 1.433594 12.304688 1.261719 10.976562 0.976562 C 9.648438 0.691406 8.582031 0.195312 7.773438 -0.507812 C 6.964844 -1.210938 6.222656 -2.136719 5.546875 -3.28125 C 5.078125 -2.082031 4.558594 -1.105469 3.984375 -0.351562 C 3.410156 0.402344 2.550781 1.171875 1.40625 1.953125 L 1.25 1.71875 C 2.238281 0.78125 2.996094 -0.183594 3.515625 -1.171875 C 4.035156 -2.160156 4.386719 -3.136719 4.570312 -4.101562 C 4.753906 -5.066406 4.871094 -6.042969 4.921875 -7.03125 L 6.796875 -6.09375 L 6.171875 -5.546875 M 8.515625 -16.09375 L 8.671875 -16.25 C 9.660156 -15.730469 10.285156 -15.324219 10.546875 -15.039062 C 10.808594 -14.753906 10.9375 -14.480469 10.9375 -14.21875 C 10.9375 -13.957031 10.820312 -13.699219 10.585938 -13.4375 C 10.351562 -13.175781 10.207031 -13.046875 10.15625 -13.046875 C 9.949219 -13.046875 9.816406 -13.28125 9.765625 -13.75 C 9.609375 -14.425781 9.191406 -15.207031 8.515625 -16.09375 M 15.3125 -10.390625 L 16.328125 -12.34375 L 3.90625 -12.34375 C 3.957031 -11.144531 3.816406 -10.457031 3.476562 -10.273438 C 3.136719 -10.089844 2.890625 -10 2.734375 -10 C 2.527344 -10 2.332031 -10.066406 2.148438 -10.195312 C 1.964844 -10.324219 1.875 -10.417969 1.875 -10.46875 C 1.875 -10.675781 2.082031 -10.964844 2.5 -11.328125 C 3.019531 -11.796875 3.386719 -12.628906 3.59375 -13.828125 L 3.90625 -13.828125 L 3.90625 -12.8125 L 16.171875 -12.8125 L 17.03125 -13.671875 L 18.359375 -12.109375 C 17.628906 -12.109375 16.691406 -11.484375 15.546875 -10.234375 Z "/>
</g>
<g id="glyph-0-3">
<path d="M 1.015625 -1.796875 C 2.578125 -2.214844 3.644531 -2.527344 4.21875 -2.734375 L 4.21875 -7.96875 L 3.828125 -7.96875 C 3.152344 -7.96875 2.527344 -7.890625 1.953125 -7.734375 L 1.25 -8.4375 L 4.21875 -8.4375 L 4.21875 -13.203125 L 3.671875 -13.203125 C 2.996094 -13.203125 2.371094 -13.125 1.796875 -12.96875 L 1.09375 -13.671875 L 6.015625 -13.671875 L 6.953125 -14.609375 L 8.28125 -13.203125 L 5.234375 -13.203125 L 5.234375 -8.4375 L 6.015625 -8.4375 L 6.953125 -9.375 L 8.28125 -7.96875 L 5.234375 -7.96875 L 5.234375 -3.046875 L 8.4375 -4.140625 L 8.515625 -3.828125 C 6.535156 -2.941406 4.558594 -2.003906 2.578125 -1.015625 L 1.953125 -0.390625 L 1.015625 -1.796875 M 8.75 -5.625 C 8.800781 -7.292969 8.828125 -8.90625 8.828125 -10.46875 C 8.828125 -12.03125 8.800781 -13.644531 8.75 -15.3125 L 9.765625 -14.609375 L 16.25 -14.609375 L 16.796875 -15.3125 L 17.96875 -14.375 L 17.34375 -13.90625 L 17.34375 -10.234375 C 17.34375 -8.566406 17.371094 -7.265625 17.421875 -6.328125 L 16.40625 -5.859375 L 16.40625 -6.796875 L 13.59375 -6.796875 L 13.59375 -3.4375 L 15.859375 -3.4375 L 16.796875 -4.375 L 18.125 -2.96875 L 13.59375 -2.96875 L 13.59375 0.234375 L 16.875 0.234375 L 17.890625 -0.78125 L 19.296875 0.703125 L 8.671875 0.703125 C 7.996094 0.703125 7.371094 0.78125 6.796875 0.9375 L 6.09375 0.234375 L 12.65625 0.234375 L 12.65625 -2.96875 L 10.9375 -2.96875 C 10.261719 -2.96875 9.636719 -2.890625 9.0625 -2.734375 L 8.359375 -3.4375 L 12.65625 -3.4375 L 12.65625 -6.796875 L 9.765625 -6.796875 L 9.765625 -6.015625 L 8.75 -5.625 M 9.765625 -14.140625 L 9.765625 -11.015625 L 12.65625 -11.015625 L 12.65625 -14.140625 L 9.765625 -14.140625 M 13.59375 -14.140625 L 13.59375 -11.015625 L 16.40625 -11.015625 L 16.40625 -14.140625 L 13.59375 -14.140625 M 9.765625 -10.546875 L 9.765625 -7.265625 L 12.65625 -7.265625 L 12.65625 -10.546875 L 9.765625 -10.546875 M 13.59375 -10.546875 L 13.59375 -7.265625 L 16.40625 -7.265625 L 16.40625 -10.546875 Z "/>
</g>
</g>
</defs>
<g fill="rgb(100%, 75.686275%, 2.745098%)" fill-opacity="1">
<use xlink:href="#glyph-0-0" x="30" y="37.1875"/>
<use xlink:href="#glyph-0-1" x="50" y="37.1875"/>
<use xlink:href="#glyph-0-2" x="70" y="37.1875"/>
<use xlink:href="#glyph-0-3" x="90" y="37.1875"/>
</g>
</svg>
