<?xml version="1.0" encoding="UTF-8"?>
<svg xmlns="http://www.w3.org/2000/svg" xmlns:xlink="http://www.w3.org/1999/xlink" width="1920" height="1080" viewBox="0 0 1920 1080">
<defs>
<g>
<g id="glyph-0-0">
<path d="M 1.882812 -1.949219 L 8.132812 -1.949219 L 8.132812 1.304688 L 7.375 1.304688 L 7.375 0.699219 L 2.648438 0.699219 L 2.648438 1.324219 L 1.882812 1.324219 L 1.882812 -1.949219 M 5.34375 -5.816406 C 6.414062 -4.605469 7.941406 -3.726562 9.921875 -3.179688 C 9.734375 -2.898438 9.574219 -2.644531 9.445312 -2.417969 C 8.679688 -2.691406 7.980469 -3.007812 7.34375 -3.363281 L 7.34375 -2.777344 L 2.675781 -2.777344 L 2.675781 -3.339844 C 2.015625 -2.949219 1.289062 -2.59375 0.5 -2.269531 C 0.359375 -2.511719 0.21875 -2.734375 0.0703125 -2.945312 C 2.144531 -3.710938 3.664062 -4.667969 4.628906 -5.816406 L 5.34375 -5.816406 M 7.375 -1.265625 L 2.648438 -1.265625 L 2.648438 0.015625 L 7.375 0.015625 L 7.375 -1.265625 M 2.0625 -8.363281 L 2.910156 -8.363281 C 2.777344 -8.019531 2.628906 -7.6875 2.46875 -7.367188 L 5.304688 -7.367188 L 5.304688 -6.695312 L 2.105469 -6.695312 C 1.703125 -6.023438 1.238281 -5.414062 0.703125 -4.867188 C 0.519531 -5.0625 0.332031 -5.25 0.136719 -5.425781 C 0.976562 -6.246094 1.617188 -7.226562 2.0625 -8.363281 M 6.257812 -8.363281 L 7.101562 -8.363281 C 6.996094 -8.015625 6.878906 -7.683594 6.75 -7.367188 L 9.804688 -7.367188 L 9.804688 -6.695312 L 6.425781 -6.695312 C 6.21875 -6.308594 5.988281 -5.945312 5.734375 -5.609375 C 5.539062 -5.78125 5.324219 -5.945312 5.097656 -6.109375 C 5.65625 -6.8125 6.046875 -7.5625 6.257812 -8.363281 M 5.007812 -5.113281 C 4.382812 -4.492188 3.652344 -3.929688 2.8125 -3.421875 L 7.242188 -3.421875 C 6.382812 -3.910156 5.636719 -4.472656 5.007812 -5.113281 M 7.765625 -4.9375 C 7.515625 -5.347656 7.222656 -5.765625 6.882812 -6.195312 L 7.480469 -6.566406 C 7.839844 -6.152344 8.148438 -5.742188 8.40625 -5.335938 L 7.765625 -4.9375 M 3.144531 -5.054688 C 2.921875 -5.429688 2.664062 -5.820312 2.363281 -6.226562 L 2.921875 -6.566406 C 3.226562 -6.195312 3.507812 -5.828125 3.757812 -5.464844 Z "/>
</g>
<g id="glyph-0-1">
<path d="M 0.65625 -2.847656 C 2.222656 -3.027344 3.445312 -3.234375 4.320312 -3.46875 C 3.539062 -3.675781 2.75 -3.878906 1.953125 -4.078125 C 2.21875 -4.363281 2.472656 -4.648438 2.714844 -4.925781 L 0.390625 -4.925781 L 0.390625 -5.570312 L 3.242188 -5.570312 C 3.488281 -5.882812 3.71875 -6.191406 3.925781 -6.5 L 4.71875 -6.273438 C 4.539062 -6.039062 4.355469 -5.804688 4.15625 -5.570312 L 9.609375 -5.570312 L 9.609375 -4.925781 L 7.507812 -4.925781 C 7.199219 -4.375 6.78125 -3.929688 6.253906 -3.589844 C 7.1875 -3.34375 8.058594 -3.109375 8.875 -2.886719 L 8.5625 -2.230469 C 7.53125 -2.558594 6.484375 -2.867188 5.414062 -3.164062 C 4.425781 -2.773438 2.933594 -2.453125 0.9375 -2.203125 C 0.859375 -2.410156 0.765625 -2.625 0.65625 -2.847656 M 9.875 0.308594 C 9.652344 0.566406 9.460938 0.8125 9.304688 1.039062 C 7.585938 0.527344 6.269531 -0.105469 5.351562 -0.851562 L 5.351562 1.351562 L 4.648438 1.351562 L 4.648438 -0.835938 C 3.664062 -0.136719 2.351562 0.488281 0.710938 1.050781 C 0.5625 0.859375 0.375 0.640625 0.148438 0.386719 C 1.824219 -0.0351562 3.15625 -0.550781 4.136719 -1.167969 L 0.371094 -1.167969 L 0.371094 -1.820312 L 4.648438 -1.820312 L 4.648438 -2.621094 L 5.351562 -2.621094 L 5.351562 -1.820312 L 9.6875 -1.820312 L 9.6875 -1.167969 L 5.882812 -1.167969 C 6.914062 -0.472656 8.242188 0.0195312 9.875 0.308594 M 0.65625 -7.398438 L 4.746094 -7.398438 C 4.621094 -7.621094 4.480469 -7.851562 4.316406 -8.089844 L 5.007812 -8.402344 C 5.222656 -8.070312 5.421875 -7.734375 5.609375 -7.398438 L 9.335938 -7.398438 L 9.335938 -5.921875 L 8.59375 -5.921875 L 8.59375 -6.753906 L 1.398438 -6.753906 L 1.398438 -5.921875 L 0.65625 -5.921875 L 0.65625 -7.398438 M 3.066406 -4.390625 C 3.859375 -4.195312 4.621094 -4.003906 5.351562 -3.820312 C 5.925781 -4.070312 6.371094 -4.441406 6.695312 -4.925781 L 3.585938 -4.925781 C 3.417969 -4.746094 3.246094 -4.570312 3.066406 -4.390625 Z "/>
</g>
<g id="glyph-0-2">
<path d="M 2.507812 -5.515625 C 2.683594 -5.515625 2.832031 -5.457031 2.953125 -5.335938 C 3.078125 -5.214844 3.140625 -5.070312 3.140625 -4.902344 C 3.140625 -4.734375 3.078125 -4.585938 2.960938 -4.464844 C 2.839844 -4.34375 2.6875 -4.28125 2.507812 -4.28125 C 2.332031 -4.28125 2.179688 -4.34375 2.0625 -4.464844 C 1.941406 -4.585938 1.878906 -4.734375 1.878906 -4.902344 C 1.878906 -5.070312 1.941406 -5.214844 2.066406 -5.335938 C 2.1875 -5.457031 2.335938 -5.515625 2.507812 -5.515625 M 2.507812 -1.117188 C 2.683594 -1.117188 2.832031 -1.058594 2.953125 -0.9375 C 3.078125 -0.816406 3.140625 -0.671875 3.140625 -0.5 C 3.140625 -0.320312 3.078125 -0.175781 2.953125 -0.0546875 C 2.832031 0.0625 2.683594 0.121094 2.507812 0.121094 C 2.335938 0.121094 2.1875 0.0625 2.066406 -0.0546875 C 1.941406 -0.175781 1.878906 -0.320312 1.878906 -0.5 C 1.878906 -0.671875 1.941406 -0.816406 2.066406 -0.9375 C 2.1875 -1.058594 2.335938 -1.117188 2.507812 -1.117188 Z "/>
</g>
<g id="glyph-0-3">
<path d="M 6.917969 0 L 5.839844 0 L 5.070312 -2.070312 L 1.917969 -2.070312 L 1.191406 0 L 0.113281 0 L 2.992188 -7.5625 L 4.039062 -7.5625 L 6.917969 0 M 4.765625 -2.925781 L 3.625 -6.070312 C 3.585938 -6.171875 3.546875 -6.347656 3.507812 -6.597656 L 3.480469 -6.597656 C 3.445312 -6.367188 3.40625 -6.191406 3.359375 -6.070312 L 2.226562 -2.925781 Z "/>
</g>
<g id="glyph-0-4">
<path d="M 0.976562 0 L 0.976562 -7.5625 L 3.199219 -7.5625 C 3.863281 -7.5625 4.394531 -7.40625 4.789062 -7.085938 C 5.1875 -6.769531 5.386719 -6.347656 5.386719 -5.824219 C 5.386719 -5.410156 5.269531 -5.039062 5.03125 -4.722656 C 4.796875 -4.402344 4.472656 -4.175781 4.058594 -4.042969 L 4.058594 -4.023438 C 4.570312 -3.964844 4.984375 -3.769531 5.289062 -3.441406 C 5.597656 -3.109375 5.75 -2.691406 5.75 -2.183594 C 5.75 -1.53125 5.519531 -1.003906 5.050781 -0.601562 C 4.585938 -0.199219 3.984375 0 3.257812 0 L 0.976562 0 M 1.953125 -6.710938 L 1.953125 -4.339844 L 2.84375 -4.339844 C 3.3125 -4.339844 3.683594 -4.457031 3.953125 -4.683594 C 4.222656 -4.914062 4.355469 -5.234375 4.355469 -5.640625 C 4.355469 -6.351562 3.878906 -6.710938 2.929688 -6.710938 L 1.953125 -6.710938 M 1.953125 -3.492188 L 1.953125 -0.855469 L 3.125 -0.855469 C 3.636719 -0.855469 4.03125 -0.972656 4.308594 -1.207031 C 4.585938 -1.445312 4.726562 -1.773438 4.726562 -2.191406 C 4.726562 -3.058594 4.140625 -3.492188 2.964844 -3.492188 Z "/>
</g>
<g id="glyph-0-5">
</g>
<g id="glyph-0-6">
<path d="M 6.207031 -3.902344 L 1.230469 -3.902344 L 1.230469 -4.640625 L 6.207031 -4.640625 L 6.207031 -3.902344 M 6.207031 -1.644531 L 1.230469 -1.644531 L 1.230469 -2.382812 L 6.207031 -2.382812 Z "/>
</g>
<g id="glyph-0-7">
<path d="M 5.148438 -2.335938 C 5.148438 -1.59375 4.902344 -1 4.410156 -0.546875 C 3.921875 -0.09375 3.261719 0.132812 2.4375 0.132812 C 1.726562 0.132812 1.199219 0.0273438 0.851562 -0.1875 L 0.851562 -1.164062 C 1.359375 -0.828125 1.882812 -0.664062 2.414062 -0.664062 C 2.9375 -0.664062 3.363281 -0.808594 3.6875 -1.101562 C 4.011719 -1.390625 4.175781 -1.777344 4.175781 -2.261719 C 4.175781 -2.742188 4.007812 -3.117188 3.667969 -3.386719 C 3.332031 -3.65625 2.855469 -3.789062 2.242188 -3.789062 C 1.765625 -3.789062 1.335938 -3.769531 0.957031 -3.726562 L 1.234375 -7.5625 L 4.769531 -7.5625 L 4.769531 -6.722656 L 2.039062 -6.722656 L 1.882812 -4.578125 L 2.574219 -4.609375 C 3.375 -4.609375 4.003906 -4.410156 4.460938 -4.011719 C 4.917969 -3.613281 5.148438 -3.054688 5.148438 -2.335938 Z "/>
</g>
</g>
</defs>
<g fill="rgb(100%, 100%, 100%)" fill-opacity="1">
<use xlink:href="#glyph-0-0" x="30" y="30.581055"/>
<use xlink:href="#glyph-0-1" x="40" y="30.581055"/>
<use xlink:href="#glyph-0-2" x="50" y="30.581055"/>
</g>
<g fill="rgb(100%, 100%, 100%)" fill-opacity="1">
<use xlink:href="#glyph-0-3" x="60" y="30.581055"/>
<use xlink:href="#glyph-0-4" x="67" y="30.581055"/>
<use xlink:href="#glyph-0-5" x="73" y="30.581055"/>
<use xlink:href="#glyph-0-6" x="76" y="30.581055"/>
<use xlink:href="#glyph-0-5" x="83" y="30.581055"/>
<use xlink:href="#glyph-0-7" x="86" y="30.581055"/>
</g>
</svg>
