<?xml version="1.0" encoding="UTF-8"?>
<svg xmlns="http://www.w3.org/2000/svg" xmlns:xlink="http://www.w3.org/1999/xlink" width="1920" height="1080" viewBox="0 0 1920 1080">
<defs>
<g>
<g id="glyph-0-0">
<path d="M 2.804688 -8.324219 L 3.632812 -8.082031 C 3.445312 -7.636719 3.242188 -7.207031 3.027344 -6.800781 L 9.070312 -6.800781 C 9.015625 -4.074219 8.960938 -2.144531 8.914062 -1.011719 C 8.871094 0.382812 8.210938 1.078125 6.945312 1.078125 C 6.414062 1.078125 5.695312 1.066406 4.773438 1.039062 C 4.742188 0.800781 4.691406 0.507812 4.617188 0.171875 C 5.382812 0.242188 6.097656 0.277344 6.765625 0.277344 C 7.632812 0.304688 8.078125 -0.175781 8.105469 -1.15625 C 8.164062 -2.796875 8.207031 -4.433594 8.234375 -6.058594 L 2.613281 -6.058594 C 2.085938 -5.179688 1.492188 -4.398438 0.828125 -3.714844 C 0.65625 -3.910156 0.4375 -4.121094 0.1875 -4.351562 C 1.277344 -5.40625 2.152344 -6.730469 2.804688 -8.324219 M 5.476562 -3.824219 C 5.828125 -3.261719 6.378906 -2.355469 7.128906 -1.097656 L 6.328125 -0.667969 C 6.21875 -0.878906 6.113281 -1.082031 6.011719 -1.285156 C 4.421875 -1.160156 3.210938 -1.054688 2.382812 -0.960938 C 2.214844 -0.941406 1.949219 -0.875 1.59375 -0.757812 L 1.179688 -1.597656 C 1.519531 -1.835938 1.792969 -2.101562 2 -2.386719 C 2.804688 -3.585938 3.40625 -4.648438 3.808594 -5.582031 L 4.648438 -5.257812 C 3.953125 -3.964844 3.230469 -2.800781 2.480469 -1.773438 C 3.636719 -1.828125 4.6875 -1.894531 5.640625 -1.976562 C 5.355469 -2.5 5.074219 -2.988281 4.796875 -3.453125 Z "/>
</g>
<g id="glyph-0-1">
<path d="M 0.867188 -7.808594 L 3.757812 -7.808594 L 3.757812 0.09375 C 3.757812 0.78125 3.445312 1.128906 2.8125 1.128906 C 2.519531 1.128906 2.199219 1.121094 1.855469 1.109375 C 1.835938 0.925781 1.796875 0.683594 1.738281 0.386719 C 2.082031 0.425781 2.378906 0.445312 2.625 0.445312 C 2.894531 0.445312 3.027344 0.292969 3.027344 -0.00390625 L 3.027344 -2.210938 L 1.601562 -2.210938 C 1.585938 -0.65625 1.289062 0.523438 0.710938 1.324219 C 0.542969 1.132812 0.34375 0.953125 0.109375 0.777344 C 0.613281 0.0664062 0.867188 -0.976562 0.867188 -2.347656 L 0.867188 -7.808594 M 4.132812 -3.082031 L 4.132812 -3.773438 L 8.9375 -3.773438 L 8.9375 -3.082031 C 8.558594 -2.152344 8.039062 -1.34375 7.378906 -0.65625 C 8.046875 -0.191406 8.867188 0.167969 9.84375 0.425781 C 9.640625 0.683594 9.476562 0.9375 9.34375 1.175781 C 8.34375 0.839844 7.496094 0.410156 6.804688 -0.121094 C 6.109375 0.46875 5.28125 0.957031 4.328125 1.332031 C 4.136719 1.027344 3.980469 0.800781 3.859375 0.660156 C 4.792969 0.296875 5.585938 -0.128906 6.234375 -0.621094 C 5.546875 -1.308594 5.0625 -2.128906 4.789062 -3.082031 L 4.132812 -3.082031 M 8.867188 -5.003906 C 9.230469 -5 9.570312 -5.007812 9.882812 -5.035156 L 9.746094 -4.300781 C 9.335938 -4.289062 8.980469 -4.28125 8.679688 -4.28125 C 8.023438 -4.28125 7.695312 -4.660156 7.695312 -5.414062 L 7.695312 -7.105469 L 5.890625 -7.105469 L 5.890625 -6.519531 C 5.890625 -5.398438 5.425781 -4.535156 4.5 -3.929688 C 4.339844 -4.125 4.164062 -4.324219 3.976562 -4.527344 C 4.761719 -4.957031 5.15625 -5.625 5.15625 -6.539062 L 5.15625 -7.796875 L 8.429688 -7.796875 L 8.429688 -5.445312 C 8.429688 -5.152344 8.574219 -5.003906 8.867188 -5.003906 M 8.105469 -3.082031 L 5.539062 -3.082031 C 5.800781 -2.3125 6.226562 -1.65625 6.8125 -1.113281 C 7.40625 -1.691406 7.839844 -2.347656 8.105469 -3.082031 M 1.601562 -2.855469 L 3.027344 -2.855469 L 3.027344 -4.703125 L 1.601562 -4.703125 L 1.601562 -2.855469 M 3.027344 -7.164062 L 1.601562 -7.164062 L 1.601562 -5.347656 L 3.027344 -5.347656 Z "/>
</g>
<g id="glyph-0-2">
<path d="M 0.125 0.601562 C 1.207031 -0.332031 1.832031 -1.699219 2 -3.5 L 2.820312 -3.375 C 2.742188 -2.773438 2.625 -2.210938 2.464844 -1.6875 C 2.96875 -0.617188 3.753906 0 4.8125 0.160156 L 4.8125 -4.136719 L 0.351562 -4.136719 L 0.351562 -4.867188 L 9.628906 -4.867188 L 9.628906 -4.136719 L 5.625 -4.136719 L 5.625 -2.554688 L 9.023438 -2.554688 L 9.023438 -1.832031 L 5.625 -1.832031 L 5.625 0.214844 C 6.921875 0.246094 8.328125 0.234375 9.851562 0.179688 C 9.742188 0.433594 9.648438 0.703125 9.570312 0.992188 C 7.976562 1.011719 6.582031 1 5.390625 0.960938 C 3.921875 0.960938 2.84375 0.367188 2.152344 -0.824219 C 1.78125 0.0390625 1.28125 0.765625 0.644531 1.363281 C 0.496094 1.109375 0.320312 0.855469 0.125 0.601562 M 0.703125 -7.132812 L 4.867188 -7.132812 C 4.675781 -7.414062 4.472656 -7.6875 4.257812 -7.953125 L 5 -8.355469 C 5.253906 -8.0625 5.53125 -7.734375 5.828125 -7.367188 L 5.390625 -7.132812 L 9.34375 -7.132812 L 9.34375 -5.277344 L 8.574219 -5.277344 L 8.574219 -6.402344 L 1.476562 -6.402344 L 1.476562 -5.289062 L 0.703125 -5.289062 Z "/>
</g>
<g id="glyph-0-3">
<path d="M 3.171875 0.257812 L 6.230469 0.257812 L 6.230469 -1.148438 L 3.742188 -1.148438 L 3.742188 -1.832031 L 6.230469 -1.832031 L 6.230469 -3.121094 L 4.667969 -3.121094 L 4.667969 -2.757812 L 3.945312 -2.757812 L 3.945312 -7.796875 L 9.238281 -7.796875 L 9.238281 -2.757812 L 8.515625 -2.757812 L 8.515625 -3.121094 L 6.953125 -3.121094 L 6.953125 -1.832031 L 9.445312 -1.832031 L 9.445312 -1.148438 L 6.953125 -1.148438 L 6.953125 0.257812 L 9.875 0.257812 L 9.875 0.941406 L 3.171875 0.941406 L 3.171875 0.257812 M 0.0703125 -0.316406 C 0.570312 -0.4375 1.054688 -0.558594 1.523438 -0.679688 L 1.523438 -3.636719 L 0.304688 -3.636719 L 0.304688 -4.320312 L 1.523438 -4.320312 L 1.523438 -6.761719 L 0.203125 -6.761719 L 0.203125 -7.445312 L 3.5625 -7.445312 L 3.5625 -6.761719 L 2.246094 -6.761719 L 2.246094 -4.320312 L 3.484375 -4.320312 L 3.484375 -3.636719 L 2.246094 -3.636719 L 2.246094 -0.875 C 2.675781 -0.996094 3.09375 -1.113281 3.496094 -1.234375 C 3.527344 -0.941406 3.5625 -0.6875 3.601562 -0.472656 C 2.488281 -0.175781 1.398438 0.140625 0.332031 0.472656 L 0.0703125 -0.316406 M 6.953125 -3.785156 L 8.515625 -3.785156 L 8.515625 -5.140625 L 6.953125 -5.140625 L 6.953125 -3.785156 M 4.667969 -3.785156 L 6.230469 -3.785156 L 6.230469 -5.140625 L 4.667969 -5.140625 L 4.667969 -3.785156 M 8.515625 -7.132812 L 6.953125 -7.132812 L 6.953125 -5.785156 L 8.515625 -5.785156 L 8.515625 -7.132812 M 4.667969 -5.785156 L 6.230469 -5.785156 L 6.230469 -7.132812 L 4.667969 -7.132812 Z "/>
</g>
<g id="glyph-0-4">
<path d="M 5.703125 -8.179688 L 5.5 -7.894531 C 6.59375 -6.195312 8.050781 -4.980469 9.875 -4.253906 C 9.664062 -3.945312 9.488281 -3.664062 9.34375 -3.402344 C 7.429688 -4.40625 5.984375 -5.695312 5.007812 -7.269531 C 4.03125 -5.761719 2.570312 -4.421875 0.617188 -3.257812 C 0.453125 -3.570312 0.277344 -3.851562 0.0859375 -4.105469 C 2.035156 -5.042969 3.554688 -6.402344 4.648438 -8.179688 L 5.703125 -8.179688 M 2.734375 -4.359375 L 3.515625 -4.359375 C 3.515625 -2.226562 3.351562 -0.855469 3.027344 -0.25 C 2.765625 0.3125 2.214844 0.882812 1.367188 1.46875 C 1.199219 1.25 1.007812 1.03125 0.800781 0.816406 C 1.582031 0.320312 2.089844 -0.171875 2.324219 -0.660156 C 2.597656 -1.160156 2.734375 -2.394531 2.734375 -4.359375 M 6.335938 -4.378906 L 7.128906 -4.378906 L 7.128906 1.292969 L 6.335938 1.292969 Z "/>
</g>
<g id="glyph-0-5">
<path d="M 4.226562 -2.914062 L 9.171875 -2.914062 L 9.171875 1.226562 L 8.40625 1.226562 L 8.40625 0.679688 L 4.992188 0.679688 L 4.992188 1.226562 L 4.226562 1.226562 L 4.226562 -2.914062 M 4.023438 -7.210938 L 4.023438 -7.875 L 9.304688 -7.875 C 9.261719 -6.445312 9.214844 -5.457031 9.171875 -4.917969 C 9.089844 -4.082031 8.679688 -3.667969 7.929688 -3.667969 C 7.589844 -3.660156 7.1875 -3.671875 6.71875 -3.695312 C 6.679688 -4.003906 6.632812 -4.273438 6.570312 -4.507812 C 6.984375 -4.433594 7.378906 -4.398438 7.765625 -4.398438 C 8.160156 -4.398438 8.378906 -4.609375 8.417969 -5.035156 C 8.476562 -5.496094 8.511719 -6.222656 8.523438 -7.210938 L 6.425781 -7.210938 C 6.394531 -5.445312 5.566406 -4.160156 3.945312 -3.355469 C 3.820312 -3.554688 3.664062 -3.765625 3.46875 -3.980469 C 4.875 -4.609375 5.617188 -5.6875 5.699219 -7.210938 L 4.023438 -7.210938 M 1.453125 -2.5625 C 2.085938 -2.640625 2.761719 -2.730469 3.476562 -2.828125 C 3.457031 -2.539062 3.445312 -2.285156 3.445312 -2.054688 C 2.144531 -1.925781 1.210938 -1.796875 0.644531 -1.675781 L 0.5 -2.4375 C 0.960938 -3.050781 1.429688 -3.746094 1.910156 -4.523438 C 1.140625 -4.488281 0.621094 -4.445312 0.351562 -4.390625 L 0.214844 -5.132812 C 0.632812 -5.621094 1.1875 -6.660156 1.882812 -8.246094 L 2.648438 -8.011719 C 2.179688 -7.03125 1.644531 -6.078125 1.046875 -5.160156 C 1.308594 -5.167969 1.730469 -5.179688 2.3125 -5.195312 C 2.558594 -5.613281 2.804688 -6.050781 3.054688 -6.507812 L 3.757812 -6.195312 C 2.933594 -4.765625 2.164062 -3.554688 1.453125 -2.5625 M 8.40625 -2.230469 L 4.992188 -2.230469 L 4.992188 -0.00390625 L 8.40625 -0.00390625 L 8.40625 -2.230469 M 0.28125 -0.269531 C 1.351562 -0.425781 2.433594 -0.613281 3.535156 -0.835938 C 3.515625 -0.691406 3.507812 -0.449219 3.507812 -0.113281 C 2.367188 0.0703125 1.355469 0.28125 0.46875 0.523438 Z "/>
</g>
</g>
</defs>
<g fill="rgb(100%, 100%, 100%)" fill-opacity="1">
<use xlink:href="#glyph-0-0" x="30" y="30.581055"/>
<use xlink:href="#glyph-0-1" x="40" y="30.581055"/>
<use xlink:href="#glyph-0-2" x="50" y="30.581055"/>
<use xlink:href="#glyph-0-3" x="60" y="30.581055"/>
<use xlink:href="#glyph-0-4" x="70" y="30.581055"/>
<use xlink:href="#glyph-0-5" x="80" y="30.581055"/>
</g>
</svg>
