<?xml version="1.0" encoding="UTF-8"?>
<svg xmlns="http://www.w3.org/2000/svg" xmlns:xlink="http://www.w3.org/1999/xlink" width="1920" height="1080" viewBox="0 0 1920 1080">
<defs>
<g>
<g id="glyph-0-0">
<path d="M 6.171875 -7.851562 C 6.746094 -7.644531 7.15625 -7.46875 7.402344 -7.324219 C 7.648438 -7.179688 7.773438 -7.003906 7.773438 -6.796875 C 7.773438 -6.746094 7.742188 -6.628906 7.675781 -6.445312 C 7.609375 -6.261719 7.550781 -6.171875 7.5 -6.171875 C 7.421875 -6.171875 7.332031 -6.277344 7.226562 -6.484375 C 7.019531 -6.824219 6.640625 -7.238281 6.09375 -7.734375 L 6.171875 -7.851562 M 4.53125 -8.164062 L 5.46875 -7.65625 L 5.15625 -7.34375 L 5.15625 -5.898438 L 7.890625 -5.898438 L 8.4375 -6.484375 L 9.21875 -5.664062 L 5.195312 -5.664062 C 5.535156 -4.570312 5.886719 -3.722656 6.25 -3.125 C 7.003906 -3.722656 7.578125 -4.308594 7.96875 -4.882812 L 8.632812 -4.140625 C 8.347656 -4.089844 8.046875 -3.972656 7.734375 -3.789062 C 7.421875 -3.582031 6.953125 -3.292969 6.328125 -2.929688 C 7.214844 -1.652344 8.28125 -0.871094 9.53125 -0.585938 L 9.53125 -0.429688 C 9.089844 -0.378906 8.789062 -0.195312 8.632812 0.117188 C 6.785156 -0.898438 5.625 -2.667969 5.15625 -5.195312 L 5.15625 -0.273438 C 5.183594 0.351562 4.855469 0.753906 4.179688 0.9375 C 4.152344 0.574219 3.761719 0.273438 3.007812 0.0390625 L 3.007812 -0.117188 C 3.582031 -0.0664062 3.976562 -0.0390625 4.199219 -0.0390625 C 4.421875 -0.0390625 4.542969 -0.15625 4.570312 -0.390625 L 4.570312 -2.65625 C 3.554688 -2.003906 2.753906 -1.484375 2.167969 -1.09375 C 1.582031 -0.703125 1.222656 -0.390625 1.09375 -0.15625 L 0.46875 -0.9375 C 0.753906 -0.988281 1.238281 -1.183594 1.914062 -1.523438 C 2.589844 -1.863281 3.476562 -2.316406 4.570312 -2.890625 L 4.570312 -5.664062 L 1.992188 -5.664062 C 1.652344 -5.664062 1.339844 -5.625 1.054688 -5.546875 L 0.703125 -5.898438 L 4.570312 -5.898438 C 4.570312 -7.019531 4.558594 -7.773438 4.53125 -8.164062 M 1.640625 -4.960938 C 2.394531 -4.675781 2.878906 -4.433594 3.085938 -4.238281 C 3.292969 -4.042969 3.398438 -3.855469 3.398438 -3.671875 C 3.398438 -3.566406 3.347656 -3.425781 3.242188 -3.242188 C 3.136719 -3.058594 3.058594 -2.96875 3.007812 -2.96875 C 2.929688 -2.96875 2.839844 -3.113281 2.734375 -3.398438 C 2.550781 -3.816406 2.160156 -4.296875 1.5625 -4.84375 Z "/>
</g>
<g id="glyph-0-1">
<path d="M 3.28125 -4.882812 C 3.308594 -5.351562 3.320312 -5.695312 3.320312 -5.917969 C 3.320312 -6.140625 3.308594 -6.472656 3.28125 -6.914062 L 3.828125 -6.601562 L 6.210938 -6.601562 L 6.445312 -6.953125 L 7.03125 -6.523438 L 6.757812 -6.289062 C 6.757812 -5.769531 6.769531 -5.378906 6.796875 -5.117188 L 6.25 -4.921875 L 6.25 -5.273438 L 3.828125 -5.273438 L 3.828125 -5.078125 L 3.28125 -4.882812 M 2.851562 -4.726562 L 3.398438 -4.453125 L 6.523438 -4.453125 L 6.796875 -4.765625 L 7.382812 -4.335938 L 7.070312 -4.101562 C 7.070312 -3.136719 7.082031 -2.488281 7.109375 -2.148438 L 6.5625 -1.875 L 6.5625 -4.21875 L 3.398438 -4.21875 L 3.398438 -2.03125 L 2.851562 -1.757812 C 2.878906 -2.332031 2.890625 -2.84375 2.890625 -3.300781 C 2.890625 -3.757812 2.878906 -4.230469 2.851562 -4.726562 M 4.765625 -3.828125 L 5.546875 -3.398438 C 5.390625 -3.269531 5.246094 -2.917969 5.117188 -2.34375 C 4.960938 -1.769531 4.667969 -1.316406 4.238281 -0.976562 C 3.808594 -0.636719 3.214844 -0.351562 2.460938 -0.117188 L 2.382812 -0.273438 C 3.371094 -0.664062 4.011719 -1.144531 4.296875 -1.71875 C 4.582031 -2.292969 4.738281 -2.996094 4.765625 -3.828125 M 5.390625 -1.992188 C 6.328125 -1.730469 6.925781 -1.515625 7.1875 -1.347656 C 7.449219 -1.179688 7.546875 -0.964844 7.480469 -0.703125 C 7.414062 -0.441406 7.355469 -0.3125 7.304688 -0.3125 C 7.226562 -0.3125 7.136719 -0.390625 7.03125 -0.546875 C 6.796875 -0.832031 6.222656 -1.277344 5.3125 -1.875 L 5.390625 -1.992188 M 3.828125 -6.367188 L 3.828125 -5.507812 L 6.25 -5.507812 L 6.25 -6.367188 L 3.828125 -6.367188 M 1.210938 0.9375 C 1.238281 0.363281 1.25 -0.0898438 1.25 -0.429688 L 1.25 -6.5625 C 1.25 -6.875 1.238281 -7.316406 1.210938 -7.890625 L 1.796875 -7.578125 L 8.125 -7.578125 L 8.4375 -7.96875 L 9.0625 -7.460938 L 8.710938 -7.1875 L 8.710938 -0.546875 C 8.710938 -0.234375 8.722656 0.15625 8.75 0.625 L 8.164062 0.898438 L 8.164062 0.195312 L 1.796875 0.195312 L 1.796875 0.664062 L 1.210938 0.9375 M 1.796875 -7.34375 L 1.796875 -0.0390625 L 8.164062 -0.0390625 L 8.164062 -7.34375 Z "/>
</g>
<g id="glyph-0-2">
<path d="M 1.757812 -5.898438 L 1.757812 -3.398438 L 3.789062 -3.398438 L 3.789062 -5.898438 L 1.757812 -5.898438 M 1.757812 -3.164062 L 1.757812 -0.429688 L 3.789062 -0.429688 L 3.789062 -3.164062 L 1.757812 -3.164062 M 4.296875 -5.664062 C 4.296875 -2.617188 4.308594 -0.625 4.335938 0.3125 L 3.789062 0.625 L 3.789062 -0.195312 L 1.757812 -0.195312 L 1.757812 0.46875 L 1.210938 0.78125 C 1.238281 -0.441406 1.25 -1.660156 1.25 -2.871094 C 1.25 -4.082031 1.238281 -5.285156 1.210938 -6.484375 L 1.796875 -6.132812 L 2.1875 -6.132812 C 2.449219 -7.019531 2.589844 -7.695312 2.617188 -8.164062 L 3.476562 -7.695312 C 3.214844 -7.566406 2.863281 -7.042969 2.421875 -6.132812 L 3.710938 -6.132812 L 4.101562 -6.523438 L 4.6875 -5.9375 L 4.296875 -5.664062 M 6.210938 -8.125 L 7.070312 -7.617188 C 6.863281 -7.488281 6.535156 -6.953125 6.09375 -6.015625 L 8.203125 -6.015625 L 8.632812 -6.445312 L 9.21875 -5.859375 L 8.867188 -5.585938 C 8.816406 -2.539062 8.742188 -0.8125 8.652344 -0.410156 C 8.5625 -0.0078125 8.429688 0.273438 8.261719 0.429688 C 8.09375 0.585938 7.824219 0.730469 7.460938 0.859375 C 7.332031 0.441406 6.902344 0.128906 6.171875 -0.078125 L 6.171875 -0.273438 C 6.824219 -0.144531 7.292969 -0.078125 7.578125 -0.078125 C 7.863281 -0.078125 8.039062 -0.300781 8.105469 -0.742188 C 8.171875 -1.183594 8.230469 -2.863281 8.28125 -5.78125 L 6.015625 -5.78125 C 5.546875 -5.027344 5.050781 -4.386719 4.53125 -3.867188 L 4.414062 -3.945312 C 4.960938 -4.777344 5.363281 -5.519531 5.625 -6.171875 C 5.886719 -6.824219 6.082031 -7.472656 6.210938 -8.125 M 5.507812 -4.296875 C 6.132812 -3.828125 6.496094 -3.484375 6.601562 -3.261719 C 6.707031 -3.039062 6.757812 -2.878906 6.757812 -2.773438 C 6.757812 -2.589844 6.707031 -2.433594 6.601562 -2.304688 C 6.496094 -2.175781 6.417969 -2.109375 6.367188 -2.109375 C 6.261719 -2.109375 6.183594 -2.292969 6.132812 -2.65625 C 6.027344 -3.175781 5.792969 -3.683594 5.429688 -4.179688 Z "/>
</g>
<g id="glyph-0-3">
<path d="M 4.140625 -1.835938 L 4.140625 -0.117188 L 5.78125 -0.117188 L 5.78125 -1.835938 L 4.140625 -1.835938 M 3.867188 -5.585938 C 4.074219 -6.183594 4.21875 -6.746094 4.296875 -7.265625 L 1.796875 -7.265625 C 1.40625 -7.265625 1.066406 -7.226562 0.78125 -7.148438 L 0.429688 -7.5 L 8.242188 -7.5 L 8.867188 -8.085938 L 9.570312 -7.265625 L 4.6875 -7.265625 L 5.273438 -6.953125 L 4.882812 -6.835938 C 4.570312 -6.394531 4.308594 -5.976562 4.101562 -5.585938 L 7.929688 -5.585938 L 8.203125 -5.976562 L 8.828125 -5.507812 L 8.554688 -5.234375 C 8.554688 -2.890625 8.566406 -0.9375 8.59375 0.625 L 8.007812 0.898438 L 8.007812 0.117188 L 1.953125 0.117188 L 1.953125 0.664062 L 1.367188 0.9375 C 1.394531 0.0273438 1.40625 -1.140625 1.40625 -2.558594 C 1.40625 -3.976562 1.394531 -5.089844 1.367188 -5.898438 L 1.953125 -5.585938 L 3.867188 -5.585938 M 1.953125 -5.351562 L 1.953125 -0.117188 L 3.632812 -0.117188 L 3.632812 -5.351562 L 1.953125 -5.351562 M 6.289062 -5.351562 L 6.289062 -0.117188 L 8.007812 -0.117188 L 8.007812 -5.351562 L 6.289062 -5.351562 M 4.140625 -5.351562 L 4.140625 -3.867188 L 5.78125 -3.867188 L 5.78125 -5.351562 L 4.140625 -5.351562 M 4.140625 -3.632812 L 4.140625 -2.070312 L 5.78125 -2.070312 L 5.78125 -3.632812 Z "/>
</g>
<g id="glyph-0-4">
<path d="M 4.882812 -2.734375 C 4.910156 -3.488281 4.921875 -4.257812 4.921875 -5.039062 C 4.921875 -5.820312 4.910156 -6.601562 4.882812 -7.382812 L 5.46875 -7.070312 L 8.164062 -7.070312 L 8.554688 -7.460938 L 9.140625 -6.875 L 8.75 -6.640625 C 8.75 -4.609375 8.761719 -3.425781 8.789062 -3.085938 L 8.242188 -2.890625 L 8.242188 -3.398438 L 5.429688 -3.398438 L 5.429688 -2.929688 L 4.882812 -2.734375 M 5.429688 -6.835938 L 5.429688 -3.632812 L 8.242188 -3.632812 L 8.242188 -6.835938 L 5.429688 -6.835938 M 5.976562 -2.65625 L 6.71875 -2.03125 L 6.367188 -1.914062 C 5.378906 -0.558594 4.402344 0.363281 3.4375 0.859375 L 3.398438 0.703125 C 4.050781 0.183594 4.597656 -0.378906 5.039062 -0.976562 C 5.480469 -1.574219 5.792969 -2.136719 5.976562 -2.65625 M 7.34375 -2.5 C 8.410156 -1.511719 9.011719 -0.867188 9.140625 -0.566406 C 9.269531 -0.265625 9.335938 -0.0390625 9.335938 0.117188 C 9.335938 0.273438 9.296875 0.410156 9.21875 0.527344 C 9.140625 0.644531 9.074219 0.703125 9.023438 0.703125 C 8.972656 0.703125 8.90625 0.597656 8.828125 0.390625 C 8.699219 0.0507812 8.542969 -0.3125 8.359375 -0.703125 C 8.175781 -1.09375 7.8125 -1.652344 7.265625 -2.382812 L 7.34375 -2.5 M 2.929688 -4.023438 C 2.929688 -1.574219 2.941406 -0.0273438 2.96875 0.625 L 2.382812 0.976562 C 2.410156 0.195312 2.421875 -1.355469 2.421875 -3.671875 C 1.875 -2.550781 1.222656 -1.652344 0.46875 -0.976562 L 0.390625 -1.09375 C 0.78125 -1.613281 1.152344 -2.21875 1.503906 -2.910156 C 1.855469 -3.601562 2.136719 -4.296875 2.34375 -5 L 1.757812 -5 C 1.417969 -5 1.105469 -4.960938 0.820312 -4.882812 L 0.46875 -5.234375 L 2.421875 -5.234375 L 2.421875 -6.992188 C 1.746094 -6.886719 1.210938 -6.824219 0.820312 -6.796875 L 0.820312 -6.953125 C 1.394531 -7.058594 1.914062 -7.195312 2.382812 -7.363281 C 2.851562 -7.53125 3.292969 -7.761719 3.710938 -8.046875 L 4.257812 -7.34375 C 3.945312 -7.34375 3.503906 -7.265625 2.929688 -7.109375 L 2.929688 -5.234375 L 3.515625 -5.234375 L 3.984375 -5.703125 L 4.648438 -5 L 2.929688 -5 L 2.929688 -4.179688 C 3.554688 -3.894531 3.9375 -3.652344 4.082031 -3.457031 C 4.226562 -3.261719 4.296875 -3.113281 4.296875 -3.007812 C 4.296875 -2.878906 4.25 -2.746094 4.160156 -2.617188 C 4.070312 -2.488281 4.011719 -2.421875 3.984375 -2.421875 C 3.878906 -2.421875 3.789062 -2.550781 3.710938 -2.8125 C 3.582031 -3.203125 3.320312 -3.605469 2.929688 -4.023438 Z "/>
</g>
<g id="glyph-0-5">
</g>
<g id="glyph-1-0">
<path d="M 4.789062 -3.179688 C 4.9375 -3.015625 5.042969 -2.835938 5.113281 -2.644531 C 5.183594 -2.449219 5.21875 -2.226562 5.21875 -1.96875 C 5.21875 -1.355469 4.992188 -0.851562 4.539062 -0.453125 C 4.089844 -0.0585938 3.527344 0.140625 2.855469 0.140625 C 2.546875 0.140625 2.238281 0.09375 1.929688 -0.00390625 C 1.621094 -0.0976562 1.351562 -0.214844 1.128906 -0.351562 L 0.917969 0.00390625 L 0.527344 0.00390625 L 0.460938 -2.367188 L 0.855469 -2.367188 C 0.9375 -2.074219 1.03125 -1.8125 1.140625 -1.574219 C 1.25 -1.339844 1.394531 -1.117188 1.570312 -0.914062 C 1.742188 -0.722656 1.9375 -0.566406 2.164062 -0.453125 C 2.390625 -0.339844 2.65625 -0.28125 2.953125 -0.28125 C 3.179688 -0.28125 3.375 -0.3125 3.542969 -0.371094 C 3.710938 -0.429688 3.847656 -0.511719 3.949219 -0.621094 C 4.054688 -0.726562 4.132812 -0.855469 4.183594 -1 C 4.234375 -1.144531 4.257812 -1.3125 4.257812 -1.5 C 4.257812 -1.777344 4.179688 -2.035156 4.023438 -2.277344 C 3.867188 -2.515625 3.632812 -2.695312 3.324219 -2.820312 C 3.113281 -2.90625 2.871094 -3 2.597656 -3.101562 C 2.324219 -3.203125 2.089844 -3.300781 1.890625 -3.390625 C 1.5 -3.566406 1.195312 -3.796875 0.980469 -4.082031 C 0.761719 -4.363281 0.65625 -4.738281 0.65625 -5.195312 C 0.65625 -5.460938 0.707031 -5.707031 0.816406 -5.933594 C 0.921875 -6.160156 1.074219 -6.363281 1.273438 -6.542969 C 1.464844 -6.710938 1.6875 -6.84375 1.945312 -6.941406 C 2.199219 -7.035156 2.46875 -7.085938 2.75 -7.085938 C 3.066406 -7.085938 3.355469 -7.035156 3.605469 -6.9375 C 3.859375 -6.839844 4.089844 -6.726562 4.296875 -6.597656 L 4.496094 -6.929688 L 4.886719 -6.929688 L 4.925781 -4.628906 L 4.53125 -4.628906 C 4.460938 -4.890625 4.378906 -5.144531 4.289062 -5.386719 C 4.199219 -5.625 4.082031 -5.84375 3.941406 -6.039062 C 3.800781 -6.230469 3.628906 -6.378906 3.429688 -6.492188 C 3.226562 -6.605469 2.976562 -6.660156 2.6875 -6.660156 C 2.375 -6.660156 2.113281 -6.5625 1.894531 -6.363281 C 1.675781 -6.164062 1.566406 -5.921875 1.566406 -5.632812 C 1.566406 -5.335938 1.636719 -5.085938 1.777344 -4.890625 C 1.917969 -4.691406 2.121094 -4.53125 2.386719 -4.40625 C 2.625 -4.289062 2.859375 -4.191406 3.089844 -4.109375 C 3.316406 -4.027344 3.539062 -3.9375 3.753906 -3.84375 C 3.949219 -3.757812 4.136719 -3.664062 4.320312 -3.554688 C 4.5 -3.445312 4.65625 -3.320312 4.789062 -3.179688 Z "/>
</g>
<g id="glyph-1-1">
</g>
<g id="glyph-1-2">
<path d="M 5.679688 -3.335938 L 0.75 -3.335938 L 0.75 -3.945312 L 5.679688 -3.945312 L 5.679688 -3.335938 M 5.679688 -1.519531 L 0.75 -1.519531 L 0.75 -2.128906 L 5.679688 -2.128906 Z "/>
</g>
<g id="glyph-1-3">
<path d="M 3.765625 -6.492188 C 3.945312 -6.304688 4.078125 -6.089844 4.164062 -5.855469 C 4.25 -5.621094 4.292969 -5.363281 4.292969 -5.085938 C 4.292969 -4.484375 4.101562 -3.992188 3.714844 -3.609375 C 3.332031 -3.226562 2.804688 -3 2.132812 -2.921875 L 2.132812 -1.839844 L 1.683594 -1.839844 L 1.683594 -3.691406 C 1.890625 -3.707031 2.09375 -3.742188 2.296875 -3.792969 C 2.496094 -3.84375 2.675781 -3.925781 2.835938 -4.039062 C 3.003906 -4.160156 3.132812 -4.304688 3.226562 -4.476562 C 3.316406 -4.648438 3.363281 -4.886719 3.363281 -5.191406 C 3.363281 -5.683594 3.261719 -6.058594 3.054688 -6.316406 C 2.847656 -6.578125 2.546875 -6.710938 2.148438 -6.710938 C 2 -6.710938 1.867188 -6.6875 1.753906 -6.644531 C 1.644531 -6.597656 1.5625 -6.558594 1.507812 -6.519531 C 1.523438 -6.441406 1.546875 -6.328125 1.574219 -6.179688 C 1.601562 -6.035156 1.617188 -5.921875 1.617188 -5.84375 C 1.617188 -5.722656 1.5625 -5.613281 1.460938 -5.515625 C 1.355469 -5.414062 1.203125 -5.367188 1.007812 -5.367188 C 0.828125 -5.367188 0.703125 -5.425781 0.628906 -5.546875 C 0.554688 -5.667969 0.515625 -5.808594 0.515625 -5.96875 C 0.515625 -6.097656 0.554688 -6.226562 0.625 -6.351562 C 0.695312 -6.476562 0.808594 -6.597656 0.960938 -6.714844 C 1.09375 -6.816406 1.269531 -6.90625 1.492188 -6.984375 C 1.714844 -7.058594 1.945312 -7.09375 2.1875 -7.09375 C 2.53125 -7.09375 2.839844 -7.039062 3.105469 -6.929688 C 3.371094 -6.820312 3.59375 -6.675781 3.765625 -6.492188 M 2.59375 -0.5625 C 2.59375 -0.378906 2.527344 -0.222656 2.394531 -0.09375 C 2.261719 0.0351562 2.105469 0.0976562 1.921875 0.0976562 C 1.742188 0.0976562 1.585938 0.0351562 1.453125 -0.09375 C 1.320312 -0.222656 1.253906 -0.378906 1.253906 -0.5625 C 1.253906 -0.742188 1.320312 -0.902344 1.453125 -1.03125 C 1.585938 -1.164062 1.742188 -1.230469 1.921875 -1.230469 C 2.105469 -1.230469 2.261719 -1.164062 2.394531 -1.03125 C 2.527344 -0.902344 2.59375 -0.742188 2.59375 -0.5625 Z "/>
</g>
</g>
</defs>
<g fill="rgb(30.588235%, 80%, 63.921569%)" fill-opacity="1">
<use xlink:href="#glyph-0-0" x="30" y="29.820312"/>
<use xlink:href="#glyph-0-1" x="40" y="29.820312"/>
<use xlink:href="#glyph-0-2" x="50" y="29.820312"/>
<use xlink:href="#glyph-0-3" x="60" y="29.820312"/>
<use xlink:href="#glyph-0-4" x="70" y="29.820312"/>
<use xlink:href="#glyph-0-5" x="80" y="29.820312"/>
</g>
<g fill="rgb(30.588235%, 80%, 63.921569%)" fill-opacity="1">
<use xlink:href="#glyph-1-0" x="85" y="29.169922"/>
<use xlink:href="#glyph-1-1" x="91" y="29.169922"/>
<use xlink:href="#glyph-1-2" x="93" y="29.169922"/>
<use xlink:href="#glyph-1-1" x="99" y="29.169922"/>
<use xlink:href="#glyph-1-3" x="101" y="29.169922"/>
</g>
</svg>
