<?xml version="1.0" encoding="UTF-8"?>
<svg xmlns="http://www.w3.org/2000/svg" xmlns:xlink="http://www.w3.org/1999/xlink" width="1920" height="1080" viewBox="0 0 1920 1080">
<defs>
<g>
<g id="glyph-0-0">
<path d="M 1.152344 -5.757812 L 1.992188 -5.757812 L 1.992188 -4.417969 L 7.832031 -4.417969 L 7.832031 -6.929688 L 0.789062 -6.929688 L 0.789062 -7.652344 L 8.652344 -7.652344 L 8.652344 -3.101562 L 7.832031 -3.101562 L 7.832031 -3.695312 L 1.992188 -3.695312 L 1.992188 -0.855469 C 1.992188 -0.253906 2.273438 0.0429688 2.84375 0.0429688 L 7.65625 0.0429688 C 8.214844 0.0429688 8.554688 -0.15625 8.671875 -0.5625 C 8.789062 -0.957031 8.875 -1.488281 8.9375 -2.152344 C 9.1875 -2.042969 9.46875 -1.945312 9.773438 -1.859375 C 9.683594 -1.183594 9.585938 -0.644531 9.484375 -0.238281 C 9.289062 0.496094 8.742188 0.863281 7.84375 0.863281 L 2.648438 0.863281 C 1.648438 0.863281 1.152344 0.351562 1.152344 -0.679688 Z "/>
</g>
<g id="glyph-0-1">
<path d="M 5.273438 -7.25 L 9.433594 -7.25 L 9.433594 1.070312 L 8.664062 1.070312 L 8.664062 0.0820312 L 6.046875 0.0820312 L 6.046875 1.070312 L 5.273438 1.070312 L 5.273438 -7.25 M 0.214844 -3.949219 L 2.21875 -3.949219 C 2.257812 -4.550781 2.277344 -5.304688 2.285156 -6.214844 L 1.453125 -6.214844 C 1.257812 -5.664062 1.058594 -5.167969 0.851562 -4.730469 C 0.554688 -4.855469 0.308594 -4.953125 0.109375 -5.023438 C 0.613281 -5.996094 1.019531 -7.101562 1.320312 -8.34375 L 2.078125 -8.167969 C 1.957031 -7.726562 1.828125 -7.308594 1.699219 -6.917969 L 4.679688 -6.917969 L 4.679688 -6.214844 L 3.066406 -6.214844 C 3.058594 -5.316406 3.039062 -4.5625 3.007812 -3.949219 L 4.875 -3.949219 L 4.875 -3.246094 L 2.949219 -3.246094 C 2.929688 -3.078125 2.910156 -2.917969 2.890625 -2.769531 C 3.71875 -1.832031 4.421875 -0.988281 5.007812 -0.238281 L 4.34375 0.257812 C 3.71875 -0.574219 3.164062 -1.277344 2.675781 -1.851562 C 2.304688 -0.601562 1.609375 0.449219 0.59375 1.304688 C 0.425781 1.074219 0.242188 0.851562 0.046875 0.628906 C 1.273438 -0.359375 1.976562 -1.652344 2.15625 -3.246094 L 0.214844 -3.246094 L 0.214844 -3.949219 M 8.664062 -6.527344 L 6.046875 -6.527344 L 6.046875 -0.621094 L 8.664062 -0.621094 Z "/>
</g>
<g id="glyph-0-2">
<path d="M 0.671875 -7.886719 L 9.289062 -7.886719 L 9.289062 1.304688 L 8.554688 1.304688 L 8.554688 0.835938 L 1.40625 0.835938 L 1.40625 1.304688 L 0.671875 1.304688 L 0.671875 -7.886719 M 2.753906 -6.597656 L 7.246094 -6.597656 L 7.246094 -4.429688 L 6.582031 -4.429688 L 6.582031 -4.652344 L 3.417969 -4.652344 L 3.417969 -4.429688 L 2.753906 -4.429688 L 2.753906 -6.597656 M 5.214844 -2.152344 C 6.183594 -1.660156 7.101562 -1.140625 7.96875 -0.601562 L 7.539062 -0.0429688 C 6.816406 -0.546875 5.976562 -1.0625 5.019531 -1.597656 C 4.714844 -0.894531 3.757812 -0.390625 2.148438 -0.0820312 C 2.0625 -0.265625 1.941406 -0.480469 1.789062 -0.726562 C 3.121094 -0.941406 3.953125 -1.269531 4.277344 -1.714844 C 4.53125 -2.027344 4.652344 -2.515625 4.640625 -3.179688 L 5.320312 -3.179688 C 5.320312 -2.792969 5.285156 -2.453125 5.214844 -2.152344 M 2.480469 -4.019531 L 7.480469 -4.019531 L 7.480469 -1.65625 L 6.816406 -1.65625 L 6.816406 -3.414062 L 3.144531 -3.414062 L 3.144531 -1.578125 L 2.480469 -1.578125 L 2.480469 -4.019531 M 6.582031 -5.257812 L 6.582031 -5.992188 L 3.417969 -5.992188 L 3.417969 -5.257812 L 6.582031 -5.257812 M 8.554688 0.152344 L 8.554688 -7.203125 L 1.40625 -7.203125 L 1.40625 0.152344 Z "/>
</g>
<g id="glyph-0-3">
<path d="M 0.554688 -6.695312 L 1.542969 -6.695312 C 1.785156 -7.285156 1.980469 -7.828125 2.140625 -8.316406 L 2.960938 -8.082031 C 2.753906 -7.582031 2.554688 -7.121094 2.363281 -6.695312 L 4.316406 -6.695312 L 4.316406 1.078125 L 3.535156 1.078125 L 3.535156 0.316406 L 1.335938 0.316406 L 1.335938 1.148438 L 0.554688 1.148438 L 0.554688 -6.695312 M 4.460938 -4.691406 C 5.074219 -5.664062 5.59375 -6.871094 6.015625 -8.316406 L 6.835938 -8.109375 C 6.671875 -7.617188 6.5 -7.15625 6.328125 -6.722656 L 9.472656 -6.722656 C 9.394531 -3.378906 9.328125 -1.269531 9.277344 -0.40625 C 9.230469 0.617188 8.695312 1.128906 7.664062 1.128906 C 7.074219 1.128906 6.472656 1.109375 5.859375 1.070312 C 5.820312 0.742188 5.769531 0.453125 5.703125 0.199219 L 5.734375 0.199219 C 6.382812 0.292969 6.980469 0.335938 7.519531 0.335938 C 8.113281 0.335938 8.429688 0.0234375 8.476562 -0.601562 C 8.546875 -1.570312 8.601562 -3.367188 8.632812 -5.992188 L 6.015625 -5.992188 C 5.734375 -5.363281 5.4375 -4.808594 5.136719 -4.332031 C 4.960938 -4.453125 4.734375 -4.574219 4.460938 -4.691406 M 1.335938 -0.414062 L 3.535156 -0.414062 L 3.535156 -2.886719 L 1.335938 -2.886719 L 1.335938 -0.414062 M 3.535156 -5.960938 L 1.335938 -5.960938 L 1.335938 -3.589844 L 3.535156 -3.589844 L 3.535156 -5.960938 M 5.320312 -4.027344 L 5.917969 -4.46875 C 6.640625 -3.613281 7.21875 -2.875 7.648438 -2.25 L 6.921875 -1.742188 C 6.460938 -2.5 5.929688 -3.261719 5.320312 -4.027344 Z "/>
</g>
<g id="glyph-0-4">
<path d="M 0.195312 -2.320312 L 4.578125 -2.320312 L 4.578125 -4.019531 L 0.59375 -4.019531 L 0.59375 -4.761719 L 4.578125 -4.761719 L 4.578125 -8.304688 L 5.410156 -8.304688 L 5.410156 -4.761719 L 9.414062 -4.761719 L 9.414062 -4.019531 L 5.410156 -4.019531 L 5.410156 -2.320312 L 9.804688 -2.320312 L 9.804688 -1.578125 L 5.410156 -1.578125 L 5.410156 1.285156 L 4.578125 1.285156 L 4.578125 -1.578125 L 0.195312 -1.578125 L 0.195312 -2.320312 M 6.5625 -5.796875 C 7.136719 -6.328125 7.742188 -6.980469 8.378906 -7.75 L 9.0625 -7.203125 C 8.429688 -6.492188 7.792969 -5.839844 7.148438 -5.25 L 6.5625 -5.796875 M 0.9375 -7.25 L 1.515625 -7.730469 C 2.117188 -7.15625 2.738281 -6.523438 3.367188 -5.824219 L 2.695312 -5.25 C 2.023438 -6.082031 1.4375 -6.75 0.9375 -7.25 Z "/>
</g>
<g id="glyph-0-5">
<path d="M 3.730469 -6.976562 L 3.730469 -7.640625 L 8.964844 -7.640625 L 8.964844 -6.96875 C 8.421875 -6.347656 7.839844 -5.792969 7.21875 -5.296875 C 8.195312 -4.773438 9.089844 -4.273438 9.902344 -3.792969 L 9.433594 -3.082031 C 8.621094 -3.625 7.671875 -4.207031 6.585938 -4.828125 C 5.585938 -4.132812 4.484375 -3.585938 3.289062 -3.1875 C 3.179688 -3.402344 3.046875 -3.621094 2.890625 -3.84375 C 5.019531 -4.566406 6.671875 -5.609375 7.851562 -6.976562 L 3.730469 -6.976562 M 3.015625 0.101562 L 6.0625 0.101562 L 6.0625 -2.191406 L 3.574219 -2.191406 L 3.574219 -2.855469 L 9.296875 -2.855469 L 9.296875 -2.191406 L 6.789062 -2.191406 L 6.789062 0.101562 L 9.84375 0.101562 L 9.84375 0.765625 L 3.015625 0.765625 L 3.015625 0.101562 M 0.0585938 -2.457031 C 1.035156 -3.269531 1.925781 -4.433594 2.734375 -5.953125 L 3.398438 -5.53125 C 3.054688 -4.921875 2.6875 -4.347656 2.304688 -3.820312 L 2.304688 1.273438 L 1.554688 1.273438 L 1.554688 -2.859375 C 1.179688 -2.429688 0.792969 -2.03125 0.390625 -1.664062 C 0.292969 -1.9375 0.183594 -2.203125 0.0585938 -2.457031 M 0.164062 -5.648438 C 1.136719 -6.425781 1.933594 -7.347656 2.558594 -8.421875 L 3.222656 -7.992188 C 2.488281 -6.828125 1.589844 -5.796875 0.539062 -4.898438 C 0.425781 -5.132812 0.304688 -5.382812 0.164062 -5.648438 Z "/>
</g>
<g id="glyph-0-6">
</g>
<g id="glyph-0-7">
<path d="M 3.75 -4.453125 C 3.589844 -4.566406 3.371094 -4.625 3.089844 -4.625 C 2.71875 -4.625 2.414062 -4.449219 2.171875 -4.105469 C 1.933594 -3.757812 1.8125 -3.300781 1.8125 -2.734375 L 1.8125 0 L 0.855469 0 L 0.855469 -5.398438 L 1.8125 -5.398438 L 1.8125 -4.300781 L 1.832031 -4.300781 C 2.105469 -5.097656 2.578125 -5.492188 3.246094 -5.492188 C 3.464844 -5.492188 3.632812 -5.46875 3.75 -5.421875 Z "/>
</g>
<g id="glyph-0-8">
<path d="M 6.207031 -3.902344 L 1.230469 -3.902344 L 1.230469 -4.640625 L 6.207031 -4.640625 L 6.207031 -3.902344 M 6.207031 -1.644531 L 1.230469 -1.644531 L 1.230469 -2.382812 L 6.207031 -2.382812 Z "/>
</g>
<g id="glyph-0-9">
<path d="M 5.148438 -2.335938 C 5.148438 -1.59375 4.902344 -1 4.410156 -0.546875 C 3.921875 -0.09375 3.261719 0.132812 2.4375 0.132812 C 1.726562 0.132812 1.199219 0.0273438 0.851562 -0.1875 L 0.851562 -1.164062 C 1.359375 -0.828125 1.882812 -0.664062 2.414062 -0.664062 C 2.9375 -0.664062 3.363281 -0.808594 3.6875 -1.101562 C 4.011719 -1.390625 4.175781 -1.777344 4.175781 -2.261719 C 4.175781 -2.742188 4.007812 -3.117188 3.667969 -3.386719 C 3.332031 -3.65625 2.855469 -3.789062 2.242188 -3.789062 C 1.765625 -3.789062 1.335938 -3.769531 0.957031 -3.726562 L 1.234375 -7.5625 L 4.769531 -7.5625 L 4.769531 -6.722656 L 2.039062 -6.722656 L 1.882812 -4.578125 L 2.574219 -4.609375 C 3.375 -4.609375 4.003906 -4.410156 4.460938 -4.011719 C 4.917969 -3.613281 5.148438 -3.054688 5.148438 -2.335938 Z "/>
</g>
<g id="glyph-0-10">
<path d="M 3.015625 -1.210938 L 2.191406 1.390625 L 1.507812 1.390625 L 2.109375 -1.210938 Z "/>
</g>
<g id="glyph-0-11">
<path d="M 0.351562 -6.527344 L 4.640625 -6.527344 L 4.640625 -8.296875 L 5.460938 -8.296875 L 5.460938 -6.527344 L 9.726562 -6.527344 L 9.726562 -5.824219 L 5.460938 -5.824219 L 5.460938 -5.21875 C 5.777344 -4.492188 6.15625 -3.828125 6.59375 -3.226562 C 7.269531 -3.8125 7.90625 -4.464844 8.507812 -5.179688 L 9.199219 -4.605469 C 8.398438 -3.808594 7.6875 -3.152344 7.070312 -2.632812 C 7.851562 -1.71875 8.785156 -0.992188 9.875 -0.445312 C 9.632812 -0.164062 9.4375 0.0898438 9.289062 0.316406 C 7.609375 -0.664062 6.332031 -1.980469 5.460938 -3.628906 L 5.460938 -0.0429688 C 5.460938 0.796875 5.019531 1.214844 4.140625 1.214844 C 3.671875 1.214844 3.238281 1.210938 2.84375 1.195312 C 2.804688 0.929688 2.75 0.640625 2.6875 0.328125 C 3.199219 0.386719 3.621094 0.414062 3.945312 0.414062 C 4.40625 0.414062 4.640625 0.175781 4.640625 -0.296875 L 4.640625 -2.144531 C 3.101562 -1.355469 1.765625 -0.640625 0.625 0.00390625 L 0.203125 -0.796875 C 1.566406 -1.425781 3.042969 -2.179688 4.640625 -3.050781 L 4.640625 -5.824219 L 0.351562 -5.824219 L 0.351562 -6.527344 M 1.789062 -5.238281 C 2.308594 -4.726562 2.839844 -4.148438 3.378906 -3.511719 C 3.175781 -3.339844 2.953125 -3.160156 2.703125 -2.964844 C 2.25 -3.554688 1.746094 -4.15625 1.203125 -4.761719 L 1.789062 -5.238281 M 6.359375 -7.777344 L 6.828125 -8.296875 C 7.445312 -7.90625 7.9375 -7.550781 8.300781 -7.230469 L 7.773438 -6.644531 C 7.390625 -6.984375 6.917969 -7.363281 6.359375 -7.777344 Z "/>
</g>
<g id="glyph-0-12">
<path d="M 0.8125 -5.71875 L 3.90625 -5.71875 C 4.09375 -6.210938 4.246094 -6.640625 4.367188 -7.007812 L 0.292969 -7.007812 L 0.292969 -7.730469 L 9.6875 -7.730469 L 9.6875 -7.007812 L 5.238281 -7.007812 C 5.097656 -6.652344 4.917969 -6.222656 4.703125 -5.71875 L 9.140625 -5.71875 L 9.140625 1.265625 L 8.390625 1.265625 L 8.390625 0.71875 L 1.5625 0.71875 L 1.5625 1.273438 L 0.8125 1.273438 L 0.8125 -5.71875 M 8.390625 -5.074219 L 6.816406 -5.074219 L 6.816406 0.0742188 L 8.390625 0.0742188 L 8.390625 -5.074219 M 1.5625 0.0742188 L 3.132812 0.0742188 L 3.132812 -5.074219 L 1.5625 -5.074219 L 1.5625 0.0742188 M 3.835938 0.0742188 L 6.113281 0.0742188 L 6.113281 -1.226562 L 3.835938 -1.226562 L 3.835938 0.0742188 M 3.835938 -1.851562 L 6.113281 -1.851562 L 6.113281 -3.148438 L 3.835938 -3.148438 L 3.835938 -1.851562 M 3.835938 -3.773438 L 6.113281 -3.773438 L 6.113281 -5.074219 L 3.835938 -5.074219 Z "/>
</g>
<g id="glyph-0-13">
<path d="M 4.394531 -7.476562 L 9.335938 -7.476562 L 9.335938 -2.386719 L 8.59375 -2.386719 L 8.59375 -2.855469 L 5.136719 -2.855469 L 5.136719 -2.386719 L 4.394531 -2.386719 L 4.394531 -7.476562 M 0.136719 -1.332031 C 0.742188 -2.246094 1.246094 -3.335938 1.648438 -4.605469 L 0.1875 -4.605469 L 0.1875 -5.289062 L 1.75 -5.289062 L 1.75 -6.839844 C 1.324219 -6.808594 0.867188 -6.777344 0.382812 -6.742188 C 0.347656 -6.976562 0.300781 -7.214844 0.234375 -7.457031 C 1.5625 -7.527344 2.722656 -7.636719 3.710938 -7.777344 L 3.886719 -7.035156 C 3.488281 -6.992188 3.015625 -6.945312 2.46875 -6.898438 L 2.46875 -5.289062 L 3.925781 -5.289062 L 3.925781 -4.605469 L 2.46875 -4.605469 L 2.46875 -3.226562 L 2.859375 -3.589844 C 3.257812 -3.199219 3.679688 -2.753906 4.132812 -2.25 L 3.574219 -1.761719 C 3.222656 -2.191406 2.855469 -2.613281 2.46875 -3.023438 L 2.46875 1.332031 L 1.75 1.332031 L 1.75 -3.011719 C 1.398438 -2.042969 0.972656 -1.203125 0.476562 -0.492188 C 0.375 -0.78125 0.261719 -1.058594 0.136719 -1.332031 M 8.59375 -6.8125 L 5.136719 -6.8125 L 5.136719 -3.519531 L 8.59375 -3.519531 L 8.59375 -6.8125 M 5.429688 -1.761719 L 6.074219 -1.304688 C 5.332031 -0.367188 4.617188 0.464844 3.9375 1.1875 C 3.78125 1.015625 3.59375 0.839844 3.378906 0.648438 C 4.171875 -0.152344 4.855469 -0.957031 5.429688 -1.761719 M 7.460938 -1.292969 L 8.066406 -1.714844 C 8.664062 -1.03125 9.285156 -0.265625 9.929688 0.582031 L 9.25 1.097656 C 8.675781 0.253906 8.078125 -0.546875 7.460938 -1.292969 Z "/>
</g>
</g>
</defs>
<g fill="rgb(100%, 100%, 100%)" fill-opacity="1">
<use xlink:href="#glyph-0-0" x="30" y="30.581055"/>
<use xlink:href="#glyph-0-1" x="40" y="30.581055"/>
<use xlink:href="#glyph-0-2" x="50" y="30.581055"/>
<use xlink:href="#glyph-0-3" x="60" y="30.581055"/>
<use xlink:href="#glyph-0-4" x="70" y="30.581055"/>
<use xlink:href="#glyph-0-5" x="80" y="30.581055"/>
<use xlink:href="#glyph-0-6" x="90" y="30.581055"/>
</g>
<g fill="rgb(100%, 100%, 100%)" fill-opacity="1">
<use xlink:href="#glyph-0-7" x="93" y="30.581055"/>
<use xlink:href="#glyph-0-6" x="97" y="30.581055"/>
<use xlink:href="#glyph-0-8" x="100" y="30.581055"/>
<use xlink:href="#glyph-0-6" x="107" y="30.581055"/>
<use xlink:href="#glyph-0-9" x="110" y="30.581055"/>
<use xlink:href="#glyph-0-10" x="116" y="30.581055"/>
</g>
<g fill="rgb(100%, 100%, 100%)" fill-opacity="1">
<use xlink:href="#glyph-0-11" x="126" y="30.581055"/>
<use xlink:href="#glyph-0-12" x="136" y="30.581055"/>
<use xlink:href="#glyph-0-13" x="146" y="30.581055"/>
</g>
</svg>
