<?xml version="1.0" encoding="UTF-8"?>
<svg xmlns="http://www.w3.org/2000/svg" xmlns:xlink="http://www.w3.org/1999/xlink" width="1920" height="1080" viewBox="0 0 1920 1080">
<defs>
<g>
<g id="glyph-0-0">
<path d="M 3.28125 -4.925781 L 6.125 -4.925781 L 6.125 -8.285156 L 6.960938 -8.285156 L 6.960938 -4.925781 L 9.824219 -4.925781 L 9.824219 -4.222656 L 6.960938 -4.222656 L 6.960938 1.285156 L 6.125 1.285156 L 6.125 -4.222656 L 3.28125 -4.222656 L 3.28125 -4.925781 M 4.179688 -1.410156 C 4.199219 -1.074219 4.222656 -0.789062 4.25 -0.5625 C 3.207031 0.0898438 2.347656 0.65625 1.671875 1.136719 L 1.203125 0.472656 C 1.429688 0.277344 1.542969 -0.0195312 1.542969 -0.414062 L 1.542969 -4.28125 L 0.15625 -4.28125 L 0.15625 -4.984375 L 2.324219 -4.984375 L 2.324219 -0.238281 C 2.890625 -0.585938 3.507812 -0.976562 4.179688 -1.410156 M 1.152344 -8.160156 C 1.863281 -7.429688 2.375 -6.890625 2.695312 -6.539062 L 2.011719 -5.960938 C 1.601562 -6.503906 1.117188 -7.0625 0.554688 -7.640625 Z "/>
</g>
<g id="glyph-0-1">
<path d="M 1.515625 -5.824219 L 3.132812 -5.824219 C 2.894531 -6.125 2.652344 -6.40625 2.414062 -6.664062 L 2.765625 -6.917969 L 1.945312 -6.917969 C 1.558594 -6.433594 1.121094 -5.984375 0.625 -5.570312 C 0.480469 -5.734375 0.320312 -5.898438 0.136719 -6.070312 C 0.9375 -6.695312 1.570312 -7.457031 2.03125 -8.355469 L 2.859375 -8.355469 C 2.707031 -8.054688 2.539062 -7.765625 2.351562 -7.484375 L 5.195312 -7.484375 L 5.195312 -6.917969 L 3 -6.917969 C 3.234375 -6.679688 3.46875 -6.433594 3.703125 -6.175781 L 3.238281 -5.824219 L 7.738281 -5.824219 C 7.492188 -6.113281 7.21875 -6.390625 6.914062 -6.664062 L 7.25 -6.917969 L 6.28125 -6.917969 C 6.023438 -6.523438 5.753906 -6.171875 5.476562 -5.863281 C 5.308594 -6.015625 5.109375 -6.167969 4.882812 -6.324219 C 5.4375 -6.902344 5.890625 -7.578125 6.25 -8.355469 L 7.089844 -8.355469 C 6.941406 -8.046875 6.789062 -7.757812 6.632812 -7.484375 L 9.726562 -7.484375 L 9.726562 -6.917969 L 7.5 -6.917969 C 7.78125 -6.6875 8.039062 -6.449219 8.273438 -6.207031 L 7.796875 -5.824219 L 8.554688 -5.824219 L 8.554688 -1.429688 L 7.871094 -1.429688 L 7.871094 -1.753906 L 2.195312 -1.753906 L 2.195312 -1.429688 L 1.515625 -1.429688 L 1.515625 -5.824219 M 0.234375 -0.953125 L 2.890625 -0.953125 C 2.917969 -1.136719 2.929688 -1.34375 2.929688 -1.566406 L 3.640625 -1.566406 C 3.640625 -1.347656 3.632812 -1.144531 3.609375 -0.953125 L 6.804688 -0.953125 L 6.804688 -1.558594 L 7.53125 -1.558594 L 7.53125 -0.953125 L 9.84375 -0.953125 L 9.84375 -0.347656 L 7.53125 -0.347656 L 7.53125 1.292969 L 6.804688 1.292969 L 6.804688 -0.347656 L 3.507812 -0.347656 C 3.273438 0.527344 2.5 1.105469 1.191406 1.382812 C 1.066406 1.179688 0.925781 0.964844 0.761719 0.738281 C 1.84375 0.554688 2.503906 0.195312 2.742188 -0.347656 L 0.234375 -0.347656 L 0.234375 -0.953125 M 7.871094 -5.277344 L 2.195312 -5.277344 L 2.195312 -4.625 L 7.871094 -4.625 L 7.871094 -5.277344 M 2.195312 -2.300781 L 7.871094 -2.300781 L 7.871094 -2.953125 L 2.195312 -2.953125 L 2.195312 -2.300781 M 2.195312 -3.460938 L 7.871094 -3.460938 L 7.871094 -4.117188 L 2.195312 -4.117188 Z "/>
</g>
<g id="glyph-0-2">
<path d="M 0.265625 0.0429688 C 0.582031 0.0117188 0.902344 -0.0234375 1.21875 -0.0585938 L 1.21875 -3.773438 L 0.148438 -3.773438 L 0.148438 -4.359375 L 9.824219 -4.359375 L 9.824219 -3.773438 L 4.726562 -3.773438 L 4.726562 -0.515625 C 5.039062 -0.5625 5.351562 -0.609375 5.664062 -0.660156 C 5.65625 -0.542969 5.660156 -0.332031 5.671875 -0.0351562 C 5.367188 0.0078125 5.050781 0.0507812 4.726562 0.0976562 L 4.726562 1.34375 L 4.0625 1.34375 L 4.0625 0.195312 C 2.941406 0.355469 1.734375 0.535156 0.4375 0.738281 L 0.265625 0.0429688 M 1.621094 -7.894531 L 8.378906 -7.894531 L 8.378906 -4.761719 L 7.695312 -4.761719 L 7.695312 -4.984375 L 2.304688 -4.984375 L 2.304688 -4.761719 L 1.621094 -4.761719 L 1.621094 -7.894531 M 5.214844 -2.515625 L 5.214844 -3.082031 L 9.09375 -3.082031 L 9.09375 -2.515625 C 8.757812 -1.71875 8.324219 -1.023438 7.78125 -0.433594 C 8.339844 -0.0273438 9.03125 0.28125 9.851562 0.492188 C 9.683594 0.742188 9.539062 0.96875 9.414062 1.175781 C 8.574219 0.898438 7.867188 0.527344 7.289062 0.0546875 C 6.730469 0.554688 6.078125 0.964844 5.332031 1.285156 C 5.222656 1.089844 5.070312 0.882812 4.882812 0.667969 C 5.621094 0.386719 6.257812 0.0234375 6.792969 -0.414062 C 6.25 -0.996094 5.859375 -1.699219 5.628906 -2.515625 L 5.214844 -2.515625 M 2.304688 -5.550781 L 7.695312 -5.550781 L 7.695312 -6.175781 L 2.304688 -6.175781 L 2.304688 -5.550781 M 7.695312 -7.328125 L 2.304688 -7.328125 L 2.304688 -6.703125 L 7.695312 -6.703125 L 7.695312 -7.328125 M 8.351562 -2.515625 L 6.289062 -2.515625 C 6.492188 -1.875 6.824219 -1.324219 7.28125 -0.867188 C 7.734375 -1.34375 8.089844 -1.894531 8.351562 -2.515625 M 4.0625 -0.421875 L 4.0625 -1.078125 L 1.882812 -1.078125 L 1.882812 -0.136719 C 2.621094 -0.226562 3.347656 -0.320312 4.0625 -0.421875 M 1.882812 -2.992188 L 4.0625 -2.992188 L 4.0625 -3.773438 L 1.882812 -3.773438 L 1.882812 -2.992188 M 1.882812 -1.644531 L 4.0625 -1.644531 L 4.0625 -2.425781 L 1.882812 -2.425781 Z "/>
</g>
<g id="glyph-0-3">
<path d="M 3.367188 -5.054688 C 4.1875 -6.113281 4.8125 -7.226562 5.242188 -8.382812 L 5.976562 -8.140625 C 5.847656 -7.84375 5.710938 -7.554688 5.566406 -7.269531 L 9.226562 -7.269531 L 9.226562 -6.578125 C 8.726562 -5.710938 8.078125 -4.953125 7.285156 -4.296875 C 8.035156 -3.785156 8.914062 -3.445312 9.921875 -3.277344 C 9.785156 -2.964844 9.671875 -2.6875 9.578125 -2.445312 C 8.441406 -2.769531 7.476562 -3.234375 6.683594 -3.835938 C 5.820312 -3.234375 4.804688 -2.738281 3.640625 -2.347656 C 3.539062 -2.589844 3.425781 -2.816406 3.300781 -3.03125 C 4.386719 -3.339844 5.335938 -3.765625 6.140625 -4.304688 C 5.625 -4.796875 5.203125 -5.367188 4.875 -6.011719 C 4.558594 -5.492188 4.21875 -5 3.859375 -4.535156 C 3.734375 -4.679688 3.570312 -4.851562 3.367188 -5.054688 M 1.386719 -2.386719 C 1.933594 -2.464844 2.570312 -2.558594 3.300781 -2.671875 C 3.261719 -2.417969 3.234375 -2.171875 3.210938 -1.9375 C 2.46875 -1.835938 1.566406 -1.699219 0.5 -1.527344 L 0.34375 -2.242188 C 0.730469 -2.652344 1.222656 -3.359375 1.816406 -4.367188 C 1.132812 -4.324219 0.640625 -4.289062 0.34375 -4.261719 L 0.15625 -4.925781 C 0.742188 -5.703125 1.359375 -6.855469 2.011719 -8.382812 L 2.753906 -8.089844 C 2.121094 -6.855469 1.546875 -5.820312 1.023438 -4.984375 C 1.433594 -4.996094 1.820312 -5.003906 2.191406 -5.015625 C 2.4375 -5.449219 2.695312 -5.921875 2.96875 -6.441406 L 3.703125 -6.117188 C 2.757812 -4.484375 1.984375 -3.242188 1.386719 -2.386719 M 4.101562 -0.171875 L 4.40625 -0.855469 C 5.601562 -0.527344 7.089844 -0.0898438 8.867188 0.464844 L 8.507812 1.234375 C 6.84375 0.644531 5.378906 0.175781 4.101562 -0.171875 M 8.367188 -6.617188 L 5.269531 -6.617188 C 5.664062 -5.863281 6.148438 -5.234375 6.722656 -4.730469 C 7.382812 -5.265625 7.933594 -5.894531 8.367188 -6.617188 M 0.136719 -0.101562 C 1.160156 -0.304688 2.285156 -0.554688 3.515625 -0.855469 C 3.496094 -0.496094 3.484375 -0.253906 3.484375 -0.121094 C 2.59375 0.0742188 1.550781 0.332031 0.351562 0.648438 L 0.136719 -0.101562 M 5.214844 -1.949219 L 5.507812 -2.601562 C 6.492188 -2.308594 7.472656 -1.988281 8.457031 -1.636719 L 8.132812 -0.863281 C 7.164062 -1.28125 6.191406 -1.640625 5.214844 -1.949219 Z "/>
</g>
<g id="glyph-0-4">
<path d="M 4.101562 -2.671875 L 9.257812 -2.671875 L 9.257812 1.292969 L 8.496094 1.292969 L 8.496094 0.6875 L 4.863281 0.6875 L 4.863281 1.292969 L 4.101562 1.292969 L 4.101562 -2.671875 M 3.90625 -4.527344 L 6.289062 -4.527344 L 6.289062 -6.050781 L 3.585938 -6.050781 L 3.585938 -6.753906 L 6.289062 -6.753906 L 6.289062 -8.316406 L 7.070312 -8.316406 L 7.070312 -6.753906 L 9.804688 -6.753906 L 9.804688 -6.050781 L 7.070312 -6.050781 L 7.070312 -4.527344 L 9.460938 -4.527344 L 9.460938 -3.824219 L 3.90625 -3.824219 L 3.90625 -4.527344 M 1.398438 -2.445312 C 2.261719 -2.570312 2.976562 -2.679688 3.546875 -2.777344 C 3.507812 -2.523438 3.476562 -2.277344 3.457031 -2.035156 C 2.734375 -1.933594 1.746094 -1.777344 0.5 -1.578125 L 0.34375 -2.300781 C 0.757812 -2.734375 1.253906 -3.417969 1.832031 -4.359375 C 1.285156 -4.324219 0.789062 -4.289062 0.34375 -4.253906 L 0.15625 -4.917969 C 0.753906 -5.71875 1.375 -6.875 2.023438 -8.382812 L 2.765625 -8.089844 C 2.0625 -6.710938 1.484375 -5.671875 1.035156 -4.976562 C 1.414062 -4.984375 1.804688 -4.996094 2.21875 -5.007812 C 2.4375 -5.386719 2.667969 -5.800781 2.910156 -6.246094 L 3.632812 -5.882812 C 2.890625 -4.648438 2.144531 -3.5 1.398438 -2.445312 M 8.496094 -1.988281 L 4.863281 -1.988281 L 4.863281 0.00390625 L 8.496094 0.00390625 L 8.496094 -1.988281 M 0.117188 -0.140625 C 1.320312 -0.375 2.496094 -0.632812 3.640625 -0.914062 C 3.625 -0.652344 3.613281 -0.40625 3.613281 -0.171875 C 2.558594 0.0507812 1.464844 0.3125 0.332031 0.609375 Z "/>
</g>
<g id="glyph-0-5">
<path d="M 9.902344 0.0820312 C 9.65625 0.351562 9.449219 0.59375 9.289062 0.816406 C 7.703125 0.3125 6.398438 -0.574219 5.371094 -1.84375 L 5.371094 1.3125 L 4.628906 1.3125 L 4.628906 -1.855469 C 3.714844 -0.796875 2.40625 0.136719 0.703125 0.941406 C 0.546875 0.746094 0.351562 0.539062 0.117188 0.316406 C 1.652344 -0.273438 2.902344 -1.035156 3.863281 -1.96875 L 0.332031 -1.96875 L 0.332031 -2.671875 L 4.628906 -2.671875 L 4.628906 -3.726562 L 2.039062 -3.726562 L 2.039062 -3.34375 L 1.296875 -3.34375 L 1.296875 -7.835938 L 8.703125 -7.835938 L 8.703125 -3.34375 L 7.960938 -3.34375 L 7.960938 -3.726562 L 5.371094 -3.726562 L 5.371094 -2.671875 L 9.6875 -2.671875 L 9.6875 -1.96875 L 6.023438 -1.96875 C 6.976562 -0.960938 8.269531 -0.277344 9.902344 0.0820312 M 5.371094 -4.390625 L 7.960938 -4.390625 L 7.960938 -5.464844 L 5.371094 -5.464844 L 5.371094 -4.390625 M 7.960938 -7.171875 L 5.371094 -7.171875 L 5.371094 -6.097656 L 7.960938 -6.097656 L 7.960938 -7.171875 M 2.039062 -4.390625 L 4.628906 -4.390625 L 4.628906 -5.464844 L 2.039062 -5.464844 L 2.039062 -4.390625 M 2.039062 -6.097656 L 4.628906 -6.097656 L 4.628906 -7.171875 L 2.039062 -7.171875 Z "/>
</g>
</g>
</defs>
<g fill="rgb(100%, 100%, 100%)" fill-opacity="1">
<use xlink:href="#glyph-0-0" x="30" y="30.581055"/>
<use xlink:href="#glyph-0-1" x="40" y="30.581055"/>
<use xlink:href="#glyph-0-2" x="50" y="30.581055"/>
<use xlink:href="#glyph-0-3" x="60" y="30.581055"/>
<use xlink:href="#glyph-0-4" x="70" y="30.581055"/>
<use xlink:href="#glyph-0-5" x="80" y="30.581055"/>
</g>
</svg>
