<?xml version="1.0" encoding="UTF-8"?>
<svg xmlns="http://www.w3.org/2000/svg" xmlns:xlink="http://www.w3.org/1999/xlink" width="1920" height="1080" viewBox="0 0 1920 1080">
<defs>
<g>
<g id="glyph-0-0">
<path d="M 3.589844 -3.726562 C 3.589844 -3.582031 3.554688 -3.449219 3.480469 -3.335938 C 3.410156 -3.222656 3.296875 -3.164062 3.148438 -3.164062 C 2.984375 -3.164062 2.859375 -3.207031 2.777344 -3.289062 C 2.691406 -3.375 2.648438 -3.464844 2.648438 -3.566406 C 2.648438 -3.632812 2.652344 -3.6875 2.664062 -3.742188 C 2.671875 -3.792969 2.683594 -3.84375 2.691406 -3.898438 C 2.554688 -3.898438 2.394531 -3.84375 2.214844 -3.734375 C 2.03125 -3.621094 1.875 -3.464844 1.75 -3.265625 L 1.75 -0.773438 C 1.75 -0.671875 1.769531 -0.589844 1.808594 -0.523438 C 1.847656 -0.460938 1.910156 -0.414062 1.992188 -0.382812 C 2.066406 -0.351562 2.15625 -0.332031 2.273438 -0.316406 C 2.386719 -0.300781 2.484375 -0.292969 2.570312 -0.285156 L 2.570312 0 L 0.3125 0 L 0.3125 -0.285156 C 0.378906 -0.292969 0.449219 -0.296875 0.519531 -0.304688 C 0.589844 -0.308594 0.652344 -0.320312 0.703125 -0.339844 C 0.785156 -0.363281 0.84375 -0.410156 0.882812 -0.476562 C 0.921875 -0.539062 0.941406 -0.625 0.941406 -0.730469 L 0.941406 -3.367188 C 0.941406 -3.457031 0.921875 -3.546875 0.878906 -3.632812 C 0.835938 -3.71875 0.777344 -3.789062 0.703125 -3.839844 C 0.648438 -3.875 0.582031 -3.902344 0.507812 -3.917969 C 0.433594 -3.933594 0.351562 -3.945312 0.265625 -3.949219 L 0.265625 -4.234375 L 1.6875 -4.332031 L 1.75 -4.269531 L 1.75 -3.667969 L 1.769531 -3.667969 C 1.949219 -3.902344 2.148438 -4.078125 2.371094 -4.203125 C 2.589844 -4.324219 2.789062 -4.382812 2.972656 -4.382812 C 3.15625 -4.382812 3.304688 -4.324219 3.417969 -4.207031 C 3.53125 -4.085938 3.589844 -3.929688 3.589844 -3.726562 Z "/>
</g>
<g id="glyph-0-1">
</g>
<g id="glyph-0-2">
<path d="M 5.046875 -2.964844 L 0.667969 -2.964844 L 0.667969 -3.507812 L 5.046875 -3.507812 L 5.046875 -2.964844 M 5.046875 -1.351562 L 0.667969 -1.351562 L 0.667969 -1.890625 L 5.046875 -1.890625 Z "/>
</g>
<g id="glyph-0-3">
<path d="M 3.660156 -2.035156 C 3.851562 -1.886719 4.007812 -1.691406 4.132812 -1.453125 C 4.261719 -1.214844 4.324219 -0.921875 4.324219 -0.5625 C 4.324219 0.0585938 4.109375 0.570312 3.683594 0.976562 C 3.257812 1.382812 2.71875 1.585938 2.066406 1.585938 C 1.558594 1.585938 1.132812 1.464844 0.78125 1.222656 C 0.429688 0.984375 0.257812 0.703125 0.257812 0.386719 C 0.257812 0.238281 0.292969 0.109375 0.363281 0 C 0.4375 -0.109375 0.546875 -0.164062 0.699219 -0.164062 C 0.871094 -0.164062 1.003906 -0.121094 1.097656 -0.0273438 C 1.1875 0.0625 1.234375 0.160156 1.234375 0.269531 C 1.234375 0.363281 1.214844 0.476562 1.183594 0.617188 C 1.152344 0.753906 1.128906 0.859375 1.109375 0.925781 C 1.132812 0.945312 1.171875 0.972656 1.222656 1.007812 C 1.277344 1.042969 1.339844 1.074219 1.410156 1.105469 C 1.484375 1.136719 1.578125 1.167969 1.6875 1.191406 C 1.792969 1.214844 1.921875 1.226562 2.066406 1.226562 C 2.25 1.226562 2.425781 1.191406 2.589844 1.117188 C 2.757812 1.039062 2.894531 0.929688 3.007812 0.78125 C 3.132812 0.621094 3.226562 0.433594 3.289062 0.226562 C 3.351562 0.0195312 3.382812 -0.242188 3.382812 -0.558594 C 3.382812 -0.96875 3.269531 -1.304688 3.039062 -1.574219 C 2.8125 -1.839844 2.515625 -1.976562 2.144531 -1.976562 C 1.914062 -1.976562 1.695312 -1.929688 1.496094 -1.84375 C 1.292969 -1.757812 1.113281 -1.613281 0.953125 -1.410156 L 0.664062 -1.523438 L 1.03125 -4.65625 L 4.140625 -4.65625 L 4.140625 -3.882812 L 1.382812 -3.882812 L 1.15625 -2.042969 C 1.289062 -2.136719 1.460938 -2.226562 1.671875 -2.320312 C 1.886719 -2.410156 2.117188 -2.457031 2.375 -2.457031 C 2.585938 -2.457031 2.804688 -2.425781 3.03125 -2.359375 C 3.257812 -2.292969 3.46875 -2.1875 3.660156 -2.035156 Z "/>
</g>
</g>
</defs>
<g fill="rgb(91.372549%, 27.058824%, 37.647059%)" fill-opacity="1">
<use xlink:href="#glyph-0-0" x="30" y="28.150391"/>
<use xlink:href="#glyph-0-1" x="34" y="28.150391"/>
<use xlink:href="#glyph-0-2" x="36" y="28.150391"/>
<use xlink:href="#glyph-0-1" x="42" y="28.150391"/>
<use xlink:href="#glyph-0-3" x="44" y="28.150391"/>
</g>
</svg>
