<?xml version="1.0" encoding="UTF-8"?>
<svg xmlns="http://www.w3.org/2000/svg" xmlns:xlink="http://www.w3.org/1999/xlink" width="1920" height="1080" viewBox="0 0 1920 1080">
<defs>
<g>
<g id="glyph-0-0">
<path d="M 2.773438 -8.164062 L 3.671875 -7.617188 L 3.28125 -7.421875 L 2.695312 -6.367188 L 8.125 -6.367188 L 8.515625 -6.757812 L 9.0625 -6.210938 L 8.75 -5.9375 C 8.621094 -2.65625 8.507812 -0.832031 8.417969 -0.46875 C 8.328125 -0.105469 8.191406 0.183594 8.007812 0.390625 C 7.824219 0.597656 7.539062 0.792969 7.148438 0.976562 C 7.019531 0.480469 6.472656 0.15625 5.507812 0 L 5.546875 -0.195312 C 6.535156 -0.0390625 7.140625 0.0195312 7.363281 -0.0195312 C 7.585938 -0.0585938 7.746094 -0.292969 7.851562 -0.722656 C 7.957031 -1.152344 8.058594 -2.957031 8.164062 -6.132812 L 2.617188 -6.132812 C 1.964844 -5.066406 1.261719 -4.230469 0.507812 -3.632812 L 0.429688 -3.75 C 0.949219 -4.347656 1.417969 -5.050781 1.835938 -5.859375 C 2.253906 -6.667969 2.566406 -7.433594 2.773438 -8.164062 M 4.21875 -5.46875 L 5 -4.882812 L 4.609375 -4.648438 C 3.828125 -3.371094 3.152344 -2.433594 2.578125 -1.835938 C 4.140625 -1.914062 5.300781 -1.980469 6.054688 -2.03125 C 5.742188 -2.527344 5.441406 -2.929688 5.15625 -3.242188 L 5.273438 -3.359375 C 5.585938 -3.125 5.929688 -2.851562 6.308594 -2.539062 C 6.6875 -2.226562 6.894531 -1.953125 6.933594 -1.71875 C 6.972656 -1.484375 6.933594 -1.308594 6.816406 -1.191406 C 6.699219 -1.074219 6.613281 -1.015625 6.5625 -1.015625 C 6.511719 -1.015625 6.472656 -1.066406 6.445312 -1.171875 C 6.367188 -1.328125 6.261719 -1.5625 6.132812 -1.875 C 3.839844 -1.5625 2.566406 -1.277344 2.304688 -1.015625 L 1.875 -1.835938 C 2.136719 -1.886719 2.371094 -2.042969 2.578125 -2.304688 C 2.785156 -2.566406 3.078125 -3.039062 3.457031 -3.730469 C 3.835938 -4.421875 4.089844 -5 4.21875 -5.46875 Z "/>
</g>
<g id="glyph-0-1">
<path d="M 8.59375 -5.195312 C 8.828125 -5.195312 8.984375 -5.234375 9.0625 -5.3125 C 9.140625 -5.363281 9.21875 -5.339844 9.296875 -5.234375 C 9.375 -5.128906 9.425781 -5.039062 9.453125 -4.960938 C 9.480469 -4.882812 9.441406 -4.832031 9.335938 -4.804688 C 9.230469 -4.777344 9.089844 -4.765625 8.90625 -4.765625 L 7.890625 -4.765625 C 7.472656 -4.765625 7.265625 -4.972656 7.265625 -5.390625 L 7.265625 -7.03125 L 5.703125 -7.03125 C 5.703125 -6.277344 5.617188 -5.671875 5.449219 -5.214844 C 5.28125 -4.757812 4.832031 -4.308594 4.101562 -3.867188 L 4.023438 -3.984375 C 4.621094 -4.453125 4.96875 -4.972656 5.058594 -5.546875 C 5.148438 -6.121094 5.167969 -6.835938 5.117188 -7.695312 L 5.742188 -7.265625 L 7.265625 -7.265625 L 7.617188 -7.617188 L 8.125 -7.109375 L 7.8125 -6.914062 L 7.8125 -5.546875 C 7.8125 -5.3125 7.941406 -5.195312 8.203125 -5.195312 L 8.59375 -5.195312 M 8.164062 -3.554688 C 7.824219 -2.566406 7.382812 -1.707031 6.835938 -0.976562 C 7.121094 -0.714844 7.480469 -0.488281 7.910156 -0.292969 C 8.339844 -0.0976562 8.800781 0.0390625 9.296875 0.117188 L 9.296875 0.234375 C 8.878906 0.285156 8.632812 0.441406 8.554688 0.703125 C 8.007812 0.46875 7.585938 0.242188 7.285156 0.0195312 C 6.984375 -0.203125 6.71875 -0.429688 6.484375 -0.664062 C 5.9375 -0.195312 5.417969 0.164062 4.921875 0.410156 C 4.425781 0.65625 3.996094 0.820312 3.632812 0.898438 L 3.59375 0.78125 C 4.035156 0.574219 4.480469 0.324219 4.921875 0.0390625 C 5.363281 -0.246094 5.78125 -0.585938 6.171875 -0.976562 C 5.703125 -1.808594 5.402344 -2.734375 5.273438 -3.75 L 4.921875 -3.632812 L 4.609375 -3.984375 L 7.65625 -3.984375 L 8.007812 -4.335938 L 8.554688 -3.789062 L 8.164062 -3.554688 M 5.46875 -3.75 C 5.652344 -2.8125 5.988281 -2.019531 6.484375 -1.367188 C 6.953125 -1.964844 7.34375 -2.761719 7.65625 -3.75 L 5.46875 -3.75 M 1.875 -7.148438 L 1.875 -5.351562 L 3.320312 -5.351562 L 3.320312 -7.148438 L 1.875 -7.148438 M 1.875 -5.117188 L 1.875 -3.320312 L 3.320312 -3.320312 L 3.320312 -5.117188 L 1.875 -5.117188 M 0.390625 0.820312 C 0.730469 0.273438 0.964844 -0.28125 1.09375 -0.839844 C 1.222656 -1.398438 1.300781 -2.019531 1.328125 -2.695312 C 1.355469 -3.371094 1.359375 -4.304688 1.347656 -5.488281 C 1.335938 -6.671875 1.316406 -7.410156 1.289062 -7.695312 L 1.875 -7.382812 L 3.28125 -7.382812 L 3.632812 -7.734375 L 4.140625 -7.226562 L 3.867188 -6.992188 L 3.867188 -0.429688 C 3.867188 -0.144531 3.800781 0.078125 3.671875 0.234375 C 3.542969 0.390625 3.332031 0.535156 3.046875 0.664062 C 2.996094 0.300781 2.667969 0.0507812 2.070312 -0.078125 L 2.070312 -0.234375 C 2.589844 -0.183594 2.929688 -0.164062 3.085938 -0.175781 C 3.242188 -0.1875 3.320312 -0.324219 3.320312 -0.585938 L 3.320312 -3.085938 L 1.875 -3.085938 C 1.847656 -2.199219 1.746094 -1.457031 1.5625 -0.859375 C 1.378906 -0.261719 1.027344 0.324219 0.507812 0.898438 Z "/>
</g>
<g id="glyph-0-2">
<path d="M 3.085938 -2.773438 C 2.980469 -2.433594 2.902344 -2.136719 2.851562 -1.875 C 3.113281 -1.457031 3.410156 -1.113281 3.75 -0.839844 C 4.089844 -0.566406 4.414062 -0.378906 4.726562 -0.273438 L 4.726562 -4.296875 L 2.539062 -4.296875 C 2.199219 -4.296875 1.886719 -4.257812 1.601562 -4.179688 L 1.25 -4.53125 L 7.34375 -4.53125 L 7.890625 -5.078125 L 8.671875 -4.296875 L 5.273438 -4.296875 L 5.273438 -2.382812 L 7.03125 -2.382812 L 7.539062 -2.890625 L 8.28125 -2.148438 L 5.273438 -2.148438 L 5.273438 -0.117188 C 6.003906 0.0117188 6.71875 0.0703125 7.421875 0.0585938 C 8.125 0.046875 8.761719 0.0117188 9.335938 -0.0390625 L 9.335938 0.117188 C 8.894531 0.195312 8.621094 0.402344 8.515625 0.742188 C 7.160156 0.714844 6.152344 0.632812 5.488281 0.488281 C 4.824219 0.34375 4.289062 0.0976562 3.886719 -0.253906 C 3.484375 -0.605469 3.113281 -1.066406 2.773438 -1.640625 C 2.539062 -1.042969 2.277344 -0.554688 1.992188 -0.175781 C 1.707031 0.203125 1.277344 0.585938 0.703125 0.976562 L 0.625 0.859375 C 1.121094 0.390625 1.496094 -0.0898438 1.757812 -0.585938 C 2.019531 -1.082031 2.195312 -1.570312 2.285156 -2.050781 C 2.375 -2.53125 2.433594 -3.019531 2.460938 -3.515625 L 3.398438 -3.046875 L 3.085938 -2.773438 M 4.257812 -8.046875 L 4.335938 -8.125 C 4.832031 -7.863281 5.144531 -7.664062 5.273438 -7.519531 C 5.402344 -7.375 5.46875 -7.238281 5.46875 -7.109375 C 5.46875 -6.980469 5.410156 -6.847656 5.292969 -6.71875 C 5.175781 -6.589844 5.105469 -6.523438 5.078125 -6.523438 C 4.972656 -6.523438 4.910156 -6.640625 4.882812 -6.875 C 4.804688 -7.214844 4.597656 -7.605469 4.257812 -8.046875 M 7.65625 -5.195312 L 8.164062 -6.171875 L 1.953125 -6.171875 C 1.980469 -5.574219 1.90625 -5.226562 1.738281 -5.136719 C 1.570312 -5.046875 1.445312 -5 1.367188 -5 C 1.261719 -5 1.164062 -5.03125 1.074219 -5.097656 C 0.984375 -5.164062 0.9375 -5.207031 0.9375 -5.234375 C 0.9375 -5.339844 1.042969 -5.480469 1.25 -5.664062 C 1.511719 -5.898438 1.691406 -6.316406 1.796875 -6.914062 L 1.953125 -6.914062 L 1.953125 -6.40625 L 8.085938 -6.40625 L 8.515625 -6.835938 L 9.179688 -6.054688 C 8.816406 -6.054688 8.347656 -5.742188 7.773438 -5.117188 Z "/>
</g>
<g id="glyph-0-3">
<path d="M 0.507812 -0.898438 C 1.289062 -1.105469 1.824219 -1.261719 2.109375 -1.367188 L 2.109375 -3.984375 L 1.914062 -3.984375 C 1.574219 -3.984375 1.261719 -3.945312 0.976562 -3.867188 L 0.625 -4.21875 L 2.109375 -4.21875 L 2.109375 -6.601562 L 1.835938 -6.601562 C 1.496094 -6.601562 1.183594 -6.5625 0.898438 -6.484375 L 0.546875 -6.835938 L 3.007812 -6.835938 L 3.476562 -7.304688 L 4.140625 -6.601562 L 2.617188 -6.601562 L 2.617188 -4.21875 L 3.007812 -4.21875 L 3.476562 -4.6875 L 4.140625 -3.984375 L 2.617188 -3.984375 L 2.617188 -1.523438 L 4.21875 -2.070312 L 4.257812 -1.914062 C 3.269531 -1.472656 2.277344 -1.003906 1.289062 -0.507812 L 0.976562 -0.195312 L 0.507812 -0.898438 M 4.375 -2.8125 C 4.402344 -3.644531 4.414062 -4.453125 4.414062 -5.234375 C 4.414062 -6.015625 4.402344 -6.824219 4.375 -7.65625 L 4.882812 -7.304688 L 8.125 -7.304688 L 8.398438 -7.65625 L 8.984375 -7.1875 L 8.671875 -6.953125 L 8.671875 -5.117188 C 8.671875 -4.285156 8.683594 -3.632812 8.710938 -3.164062 L 8.203125 -2.929688 L 8.203125 -3.398438 L 6.796875 -3.398438 L 6.796875 -1.71875 L 7.929688 -1.71875 L 8.398438 -2.1875 L 9.0625 -1.484375 L 6.796875 -1.484375 L 6.796875 0.117188 L 8.4375 0.117188 L 8.945312 -0.390625 L 9.648438 0.351562 L 4.335938 0.351562 C 3.996094 0.351562 3.683594 0.390625 3.398438 0.46875 L 3.046875 0.117188 L 6.328125 0.117188 L 6.328125 -1.484375 L 5.46875 -1.484375 C 5.128906 -1.484375 4.816406 -1.445312 4.53125 -1.367188 L 4.179688 -1.71875 L 6.328125 -1.71875 L 6.328125 -3.398438 L 4.882812 -3.398438 L 4.882812 -3.007812 L 4.375 -2.8125 M 4.882812 -7.070312 L 4.882812 -5.507812 L 6.328125 -5.507812 L 6.328125 -7.070312 L 4.882812 -7.070312 M 6.796875 -7.070312 L 6.796875 -5.507812 L 8.203125 -5.507812 L 8.203125 -7.070312 L 6.796875 -7.070312 M 4.882812 -5.273438 L 4.882812 -3.632812 L 6.328125 -3.632812 L 6.328125 -5.273438 L 4.882812 -5.273438 M 6.796875 -5.273438 L 6.796875 -3.632812 L 8.203125 -3.632812 L 8.203125 -5.273438 Z "/>
</g>
</g>
</defs>
<g fill="rgb(100%, 75.686275%, 2.745098%)" fill-opacity="1">
<use xlink:href="#glyph-0-0" x="30" y="28.59375"/>
<use xlink:href="#glyph-0-1" x="40" y="28.59375"/>
<use xlink:href="#glyph-0-2" x="50" y="28.59375"/>
<use xlink:href="#glyph-0-3" x="60" y="28.59375"/>
</g>
</svg>
