<?xml version="1.0" encoding="UTF-8"?>
<svg xmlns="http://www.w3.org/2000/svg" xmlns:xlink="http://www.w3.org/1999/xlink" width="1920" height="1080" viewBox="0 0 1920 1080">
<defs>
<g>
<g id="glyph-0-0">
<path d="M 4.558594 -3.644531 L 5.953125 -2.917969 L 5.46875 -2.550781 L 5.46875 -0.667969 C 5.46875 -0.222656 5.671875 0.0195312 6.078125 0.0625 L 9.84375 0.0625 C 10.207031 0.0195312 10.441406 -0.203125 10.542969 -0.609375 C 10.644531 -1.011719 10.714844 -1.660156 10.753906 -2.550781 L 11 -2.550781 C 11.039062 -1.742188 11.089844 -1.15625 11.152344 -0.789062 C 11.210938 -0.425781 11.425781 -0.203125 11.789062 -0.121094 C 11.503906 0.484375 11.039062 0.789062 10.390625 0.789062 L 5.832031 0.789062 C 4.941406 0.789062 4.539062 0.386719 4.617188 -0.425781 C 4.617188 -2.085938 4.597656 -3.160156 4.558594 -3.644531 M 6.378906 -4.3125 L 6.5 -4.496094 C 7.472656 -4.011719 8.101562 -3.644531 8.386719 -3.402344 C 8.667969 -3.160156 8.8125 -2.917969 8.8125 -2.671875 C 8.8125 -2.472656 8.75 -2.257812 8.628906 -2.035156 C 8.507812 -1.8125 8.40625 -1.703125 8.324219 -1.703125 C 8.203125 -1.703125 8.0625 -1.882812 7.898438 -2.25 C 7.65625 -2.816406 7.148438 -3.503906 6.378906 -4.3125 M 11.300781 -3.160156 L 11.425781 -3.34375 C 12.195312 -3.019531 12.8125 -2.714844 13.277344 -2.429688 C 13.742188 -2.148438 14.015625 -1.851562 14.097656 -1.550781 C 14.179688 -1.246094 14.148438 -0.972656 14.007812 -0.730469 C 13.863281 -0.484375 13.734375 -0.363281 13.613281 -0.363281 C 13.449219 -0.363281 13.289062 -0.566406 13.125 -0.972656 C 12.839844 -1.578125 12.234375 -2.308594 11.300781 -3.160156 M 2.796875 -3.160156 L 3.039062 -3.160156 C 2.957031 -1.902344 2.824219 -1.09375 2.644531 -0.730469 C 2.460938 -0.363281 2.21875 -0.152344 1.914062 -0.0898438 C 1.609375 -0.03125 1.386719 -0.0507812 1.246094 -0.152344 C 1.105469 -0.253906 1.03125 -0.34375 1.03125 -0.425781 C 1.03125 -0.585938 1.214844 -0.832031 1.578125 -1.15625 C 2.066406 -1.558594 2.472656 -2.226562 2.796875 -3.160156 M 4.859375 -12.394531 C 5.507812 -11.992188 5.996094 -11.617188 6.320312 -11.273438 C 6.644531 -10.925781 6.765625 -10.59375 6.683594 -10.269531 C 6.601562 -9.945312 6.480469 -9.722656 6.320312 -9.601562 C 6.15625 -9.480469 6.054688 -9.417969 6.015625 -9.417969 C 5.894531 -9.417969 5.792969 -9.640625 5.710938 -10.085938 C 5.589844 -10.652344 5.246094 -11.382812 4.679688 -12.273438 L 4.859375 -12.394531 M 3.585938 -3.949219 C 3.625 -4.921875 3.644531 -5.875 3.644531 -6.804688 C 3.644531 -7.738281 3.625 -8.628906 3.585938 -9.480469 L 4.496094 -8.992188 L 8.265625 -8.992188 C 8.992188 -10.332031 9.519531 -11.566406 9.84375 -12.699219 L 11.121094 -11.789062 L 10.511719 -11.605469 C 9.824219 -10.632812 9.195312 -9.761719 8.628906 -8.992188 L 11.058594 -8.992188 L 11.484375 -9.601562 L 12.457031 -8.871094 L 11.972656 -8.445312 C 11.972656 -6.421875 11.992188 -5.085938 12.03125 -4.4375 L 11.121094 -4.070312 L 11.121094 -4.738281 L 4.496094 -4.738281 L 4.496094 -4.253906 L 3.585938 -3.949219 M 4.496094 -8.628906 L 4.496094 -5.105469 L 11.121094 -5.105469 L 11.121094 -8.628906 Z "/>
</g>
<g id="glyph-0-1">
<path d="M 9.84375 -9.480469 C 9.84375 -11.140625 9.824219 -12.234375 9.785156 -12.761719 L 11.242188 -11.972656 L 10.632812 -11.546875 L 10.632812 -9.480469 L 12.882812 -9.480469 L 13.613281 -10.207031 L 14.644531 -9.113281 L 10.632812 -9.113281 L 10.632812 -6.378906 L 12.273438 -6.378906 L 13.003906 -7.109375 L 14.035156 -6.015625 L 8.871094 -6.015625 C 8.34375 -6.015625 7.859375 -5.953125 7.414062 -5.832031 L 6.867188 -6.378906 L 9.84375 -6.378906 L 9.84375 -9.113281 L 8.324219 -9.113281 C 7.796875 -9.113281 7.3125 -9.054688 6.867188 -8.933594 L 6.320312 -9.480469 L 9.84375 -9.480469 M 7.351562 1.457031 C 7.394531 0.566406 7.414062 -0.464844 7.414062 -1.640625 C 7.414062 -2.816406 7.394531 -3.828125 7.351562 -4.679688 L 8.324219 -4.132812 L 12.457031 -4.132812 L 13.003906 -4.679688 L 13.855469 -3.828125 L 13.308594 -3.464844 L 13.308594 -0.972656 C 13.308594 -0.0820312 13.328125 0.546875 13.367188 0.910156 L 12.519531 1.277344 L 12.519531 0.0625 L 8.203125 0.0625 L 8.203125 1.03125 L 7.351562 1.457031 M 8.203125 -3.765625 L 8.203125 -0.304688 L 12.519531 -0.304688 L 12.519531 -3.765625 L 8.203125 -3.765625 M 2.371094 -3.765625 L 6.5625 -4.4375 L 6.5625 -4.191406 C 6.078125 -4.070312 5.308594 -3.859375 4.253906 -3.554688 C 3.199219 -3.25 2.429688 -2.917969 1.945312 -2.550781 L 1.277344 -3.644531 C 1.601562 -3.765625 1.902344 -3.96875 2.1875 -4.253906 C 2.472656 -4.539062 3.140625 -5.40625 4.191406 -6.867188 C 3.707031 -6.785156 3.242188 -6.695312 2.796875 -6.59375 C 2.347656 -6.492188 1.925781 -6.320312 1.519531 -6.078125 L 0.972656 -7.171875 C 1.378906 -7.171875 1.851562 -7.746094 2.398438 -8.902344 C 2.945312 -10.058594 3.382812 -11.242188 3.707031 -12.457031 L 4.984375 -11.789062 L 4.4375 -11.484375 C 3.585938 -9.863281 2.753906 -8.425781 1.945312 -7.171875 L 4.375 -7.230469 C 4.859375 -8 5.246094 -8.710938 5.53125 -9.359375 L 6.625 -8.566406 L 6.078125 -8.265625 C 4.941406 -6.765625 3.707031 -5.265625 2.371094 -3.765625 M 1.578125 0.609375 L 0.972656 -0.546875 C 1.539062 -0.628906 2.21875 -0.757812 3.007812 -0.941406 C 3.796875 -1.125 5.023438 -1.457031 6.683594 -1.945312 L 6.746094 -1.703125 C 3.746094 -0.527344 2.027344 0.242188 1.578125 0.609375 Z "/>
</g>
</g>
</defs>
<g fill="rgb(100%, 75.686275%, 2.745098%)" fill-opacity="1">
<use xlink:href="#glyph-0-0" x="30" y="33.368164"/>
<use xlink:href="#glyph-0-1" x="46" y="33.368164"/>
</g>
</svg>
