<?xml version="1.0" encoding="UTF-8"?>
<svg xmlns="http://www.w3.org/2000/svg" xmlns:xlink="http://www.w3.org/1999/xlink" width="1920" height="1080" viewBox="0 0 1920 1080">
<defs>
<g>
<g id="glyph-0-0">
<path d="M 10.597656 0.144531 L 11.21875 -1.957031 L 11.410156 -1.957031 C 11.285156 -0.875 11.242188 -0.175781 11.292969 0.144531 C 11.339844 0.460938 11.410156 0.746094 11.507812 1.003906 C 11.570312 1.160156 11.523438 1.242188 11.363281 1.242188 C 11.300781 1.242188 11.117188 1.203125 10.8125 1.121094 C 10.511719 1.042969 10.042969 0.765625 9.40625 0.285156 C 8.769531 -0.191406 8.242188 -0.828125 7.832031 -1.625 C 7.417969 -2.417969 7.097656 -3.773438 6.875 -5.679688 L 4.917969 -5.585938 L 4.488281 -5.441406 L 4.011719 -5.824219 L 6.828125 -5.96875 C 6.765625 -6.765625 6.714844 -7.433594 6.683594 -7.972656 C 6.652344 -8.515625 6.621094 -9.085938 6.589844 -9.691406 L 7.734375 -9.121094 L 7.351562 -8.785156 C 7.382812 -7.542969 7.433594 -6.621094 7.496094 -6.015625 L 9.835938 -6.160156 L 10.457031 -6.78125 L 11.410156 -5.96875 L 7.542969 -5.730469 C 7.734375 -3.851562 8.117188 -2.492188 8.691406 -1.648438 C 9.261719 -0.804688 9.898438 -0.207031 10.597656 0.144531 M 8.546875 -8.976562 L 8.59375 -9.167969 C 9.804688 -8.753906 10.464844 -8.433594 10.574219 -8.210938 C 10.6875 -7.988281 10.742188 -7.832031 10.742188 -7.734375 C 10.742188 -7.605469 10.695312 -7.472656 10.597656 -7.328125 C 10.503906 -7.1875 10.425781 -7.113281 10.359375 -7.113281 C 10.234375 -7.113281 10.105469 -7.257812 9.980469 -7.542969 C 9.722656 -7.957031 9.246094 -8.433594 8.546875 -8.976562 M 3.4375 -5.921875 L 3.4375 -0.765625 C 3.4375 -0.253906 3.453125 0.300781 3.484375 0.90625 L 2.722656 1.242188 C 2.753906 0.445312 2.769531 -0.207031 2.769531 -0.714844 L 2.769531 -5.96875 C 2.003906 -4.757812 1.273438 -3.835938 0.574219 -3.199219 L 0.429688 -3.34375 C 0.84375 -3.882812 1.234375 -4.464844 1.597656 -5.085938 C 1.964844 -5.707031 2.332031 -6.421875 2.699219 -7.234375 C 3.0625 -8.046875 3.390625 -8.976562 3.675781 -10.027344 L 4.726562 -9.359375 C 4.472656 -9.230469 4.203125 -8.878906 3.914062 -8.308594 C 3.628906 -7.703125 3.359375 -7.160156 3.101562 -6.683594 L 3.773438 -6.253906 Z "/>
</g>
<g id="glyph-0-1">
<path d="M 3.484375 -9.121094 L 3.914062 -9.550781 C 5.09375 -9.136719 5.808594 -8.679688 6.0625 -8.1875 C 6.316406 -7.695312 6.621094 -6.921875 6.972656 -5.871094 C 7.289062 -4.820312 7.871094 -3.738281 8.714844 -2.625 C 9.558594 -1.511719 10.550781 -0.78125 11.699219 -0.429688 L 11.699219 -0.238281 C 11.15625 -0.238281 10.742188 -0.03125 10.457031 0.382812 C 9.660156 -0.222656 8.992188 -0.882812 8.449219 -1.597656 C 7.910156 -2.316406 7.472656 -3.039062 7.136719 -3.773438 C 6.804688 -4.503906 6.492188 -5.410156 6.207031 -6.492188 C 5.761719 -5.027344 5.125 -3.714844 4.296875 -2.554688 C 3.46875 -1.390625 2.210938 -0.269531 0.523438 0.8125 L 0.429688 0.621094 C 1.863281 -0.492188 3 -1.695312 3.84375 -2.984375 C 4.6875 -4.273438 5.285156 -5.730469 5.632812 -7.351562 C 5.730469 -7.734375 5.578125 -8.070312 5.179688 -8.355469 C 4.78125 -8.640625 4.21875 -8.894531 3.484375 -9.121094 Z "/>
</g>
<g id="glyph-0-2">
<path d="M 3.582031 -2.914062 C 3.328125 -2.5 3.085938 -2.101562 2.863281 -1.71875 C 3.277344 -1.625 3.773438 -1.511719 4.34375 -1.382812 C 4.632812 -1.703125 4.917969 -2.210938 5.203125 -2.914062 L 3.582031 -2.914062 M 1.625 -9.359375 C 2.226562 -8.976562 2.59375 -8.691406 2.722656 -8.5 C 2.847656 -8.308594 2.914062 -8.164062 2.914062 -8.070312 C 2.914062 -7.910156 2.855469 -7.75 2.746094 -7.589844 C 2.632812 -7.433594 2.546875 -7.351562 2.484375 -7.351562 C 2.386719 -7.351562 2.292969 -7.511719 2.195312 -7.832031 C 2.070312 -8.277344 1.832031 -8.753906 1.480469 -9.261719 L 1.625 -9.359375 M 5.730469 -9.5 L 6.589844 -8.929688 C 6.335938 -8.863281 6.109375 -8.707031 5.921875 -8.449219 C 5.699219 -8.195312 5.332031 -7.8125 4.820312 -7.304688 L 4.679688 -7.402344 C 5.285156 -8.355469 5.632812 -9.054688 5.730469 -9.5 M 3.582031 -10.027344 L 4.632812 -9.550781 L 4.25 -9.214844 L 4.25 -7.019531 L 5.441406 -7.019531 L 5.96875 -7.542969 L 6.78125 -6.730469 L 4.25 -6.730469 L 4.25 -6.300781 C 4.980469 -6.144531 5.433594 -5.992188 5.609375 -5.847656 C 5.785156 -5.707031 5.871094 -5.523438 5.871094 -5.300781 C 5.871094 -5.203125 5.855469 -5.085938 5.824219 -4.941406 C 5.792969 -4.796875 5.746094 -4.726562 5.679688 -4.726562 C 5.617188 -4.726562 5.507812 -4.839844 5.347656 -5.0625 C 5.09375 -5.410156 4.726562 -5.746094 4.25 -6.0625 L 4.25 -4.582031 L 3.675781 -4.203125 L 4.34375 -3.914062 C 4.1875 -3.851562 3.980469 -3.613281 3.722656 -3.199219 L 5.203125 -3.199219 L 5.539062 -3.628906 L 6.253906 -3.007812 L 5.824219 -2.769531 C 5.507812 -2.035156 5.21875 -1.527344 4.964844 -1.242188 C 5.476562 -1.113281 5.816406 -0.980469 5.992188 -0.835938 C 6.167969 -0.691406 6.253906 -0.507812 6.253906 -0.285156 C 6.253906 -0.0625 6.207031 0.046875 6.109375 0.046875 C 6.015625 0.046875 5.90625 -0.015625 5.777344 -0.144531 C 5.425781 -0.398438 5.027344 -0.621094 4.582031 -0.8125 C 3.46875 0.078125 2.148438 0.667969 0.621094 0.953125 L 0.574219 0.8125 C 2.035156 0.335938 3.183594 -0.285156 4.011719 -1.050781 C 3.375 -1.273438 2.753906 -1.433594 2.148438 -1.527344 C 2.277344 -1.71875 2.53125 -2.179688 2.914062 -2.914062 L 2.292969 -2.914062 C 1.878906 -2.914062 1.496094 -2.863281 1.144531 -2.769531 L 0.714844 -3.199219 L 3.007812 -3.199219 C 3.136719 -3.515625 3.261719 -3.898438 3.390625 -4.34375 L 3.628906 -4.25 L 3.628906 -6.207031 C 2.769531 -5.21875 1.78125 -4.457031 0.667969 -3.914062 L 0.574219 -4.058594 C 1.75 -4.886719 2.640625 -5.777344 3.246094 -6.730469 L 2.386719 -6.730469 C 1.972656 -6.730469 1.589844 -6.683594 1.242188 -6.589844 L 0.8125 -7.019531 L 3.628906 -7.019531 C 3.628906 -8.164062 3.613281 -9.167969 3.582031 -10.027344 M 7.496094 -6.730469 C 7.65625 -4.886719 8.035156 -3.34375 8.640625 -2.101562 C 9.152344 -3.183594 9.46875 -4.726562 9.597656 -6.730469 L 7.496094 -6.730469 M 7.734375 -10.027344 L 8.832031 -9.40625 C 8.578125 -9.308594 8.386719 -9.121094 8.261719 -8.832031 C 8.132812 -8.546875 7.894531 -7.941406 7.542969 -7.019531 L 10.265625 -7.019531 L 10.839844 -7.589844 L 11.699219 -6.730469 L 10.3125 -6.730469 C 10.121094 -4.375 9.707031 -2.625 9.070312 -1.480469 C 9.804688 -0.589844 10.664062 -0.03125 11.648438 0.191406 L 11.648438 0.382812 C 11.046875 0.476562 10.726562 0.667969 10.695312 0.953125 C 9.867188 0.382812 9.183594 -0.269531 8.640625 -1.003906 C 7.589844 0.015625 6.335938 0.765625 4.871094 1.242188 L 4.773438 1.097656 C 6.238281 0.429688 7.402344 -0.445312 8.261719 -1.527344 C 7.65625 -3.023438 7.335938 -4.664062 7.304688 -6.445312 C 6.988281 -5.617188 6.523438 -4.839844 5.921875 -4.105469 L 5.777344 -4.203125 C 6.542969 -5.476562 7.195312 -7.417969 7.734375 -10.027344 Z "/>
</g>
<g id="glyph-0-3">
<path d="M 2.914062 -1.242188 C 2.914062 -0.128906 2.929688 0.621094 2.960938 1.003906 L 2.242188 1.242188 C 2.277344 0.09375 2.292969 -0.667969 2.292969 -1.050781 L 2.292969 -5.777344 C 1.71875 -4.855469 1.160156 -4.105469 0.621094 -3.53125 L 0.476562 -3.628906 C 1.082031 -4.550781 1.625 -5.585938 2.101562 -6.730469 C 2.578125 -7.878906 2.945312 -8.945312 3.199219 -9.929688 L 4.203125 -9.308594 L 3.722656 -9.023438 C 3.214844 -7.847656 2.878906 -7.050781 2.722656 -6.636719 L 3.292969 -6.300781 L 2.914062 -6.015625 L 2.914062 -1.242188 M 5.492188 -6.160156 L 5.492188 -4.726562 L 9.167969 -4.726562 L 9.167969 -6.160156 L 5.492188 -6.160156 M 5.492188 -4.441406 L 5.492188 -3.007812 L 9.167969 -3.007812 L 9.167969 -4.441406 L 5.492188 -4.441406 M 5.492188 -2.722656 L 5.492188 -1.289062 L 9.167969 -1.289062 L 9.167969 -2.722656 L 5.492188 -2.722656 M 5.492188 -1.003906 L 5.492188 0.429688 L 9.167969 0.429688 L 9.167969 -1.003906 L 5.492188 -1.003906 M 6.78125 -8.117188 C 6.8125 -8.847656 6.8125 -9.46875 6.78125 -9.980469 L 7.878906 -9.453125 L 7.496094 -9.167969 L 7.449219 -8.117188 L 9.597656 -8.117188 L 10.21875 -8.738281 L 11.125 -7.832031 L 7.449219 -7.832031 L 7.402344 -6.445312 L 9.070312 -6.445312 L 9.5 -6.921875 L 10.21875 -6.300781 L 9.789062 -6.015625 L 9.789062 0.429688 L 10.21875 0.429688 L 10.839844 -0.191406 L 11.746094 0.714844 L 4.679688 0.714844 C 4.265625 0.714844 3.882812 0.765625 3.53125 0.859375 L 3.101562 0.429688 L 4.871094 0.429688 L 4.871094 -4.871094 C 4.871094 -5.25 4.855469 -5.90625 4.820312 -6.828125 L 5.492188 -6.445312 L 6.730469 -6.445312 L 6.78125 -7.832031 L 5.347656 -7.832031 C 4.933594 -7.832031 4.550781 -7.78125 4.203125 -7.6875 L 3.773438 -8.117188 Z "/>
</g>
</g>
</defs>
<g fill="rgb(100%, 75.686275%, 2.745098%)" fill-opacity="1">
<use xlink:href="#glyph-0-0" x="30" y="30.503906"/>
<use xlink:href="#glyph-0-1" x="42" y="30.503906"/>
<use xlink:href="#glyph-0-2" x="54" y="30.503906"/>
<use xlink:href="#glyph-0-3" x="66" y="30.503906"/>
</g>
</svg>
