<?xml version="1.0" encoding="UTF-8"?>
<svg xmlns="http://www.w3.org/2000/svg" xmlns:xlink="http://www.w3.org/1999/xlink" width="1920" height="1080" viewBox="0 0 1920 1080">
<defs>
<g>
<g id="glyph-0-0">
<path d="M 5.988281 -5.472656 C 6.292969 -5.195312 6.535156 -4.859375 6.710938 -4.464844 C 6.890625 -4.074219 6.980469 -3.625 6.980469 -3.121094 C 6.980469 -2.671875 6.902344 -2.246094 6.753906 -1.839844 C 6.601562 -1.433594 6.386719 -1.085938 6.101562 -0.792969 C 5.804688 -0.492188 5.453125 -0.253906 5.050781 -0.0859375 C 4.648438 0.0859375 4.171875 0.167969 3.617188 0.167969 C 3.167969 0.167969 2.742188 0.09375 2.34375 -0.0507812 C 1.945312 -0.199219 1.59375 -0.414062 1.289062 -0.695312 C 0.988281 -0.96875 0.75 -1.304688 0.574219 -1.695312 C 0.394531 -2.089844 0.308594 -2.527344 0.308594 -3.011719 C 0.308594 -3.515625 0.394531 -3.972656 0.566406 -4.382812 C 0.738281 -4.792969 0.976562 -5.140625 1.277344 -5.433594 C 1.574219 -5.722656 1.929688 -5.941406 2.335938 -6.097656 C 2.746094 -6.25 3.183594 -6.328125 3.644531 -6.328125 C 4.105469 -6.328125 4.539062 -6.253906 4.941406 -6.101562 C 5.34375 -5.953125 5.695312 -5.742188 5.988281 -5.472656 M 4.875 -1.066406 C 5.003906 -1.328125 5.097656 -1.625 5.15625 -1.960938 C 5.214844 -2.292969 5.242188 -2.671875 5.242188 -3.089844 C 5.242188 -3.445312 5.21875 -3.792969 5.167969 -4.132812 C 5.117188 -4.46875 5.03125 -4.769531 4.910156 -5.035156 C 4.785156 -5.296875 4.621094 -5.507812 4.414062 -5.667969 C 4.207031 -5.828125 3.953125 -5.90625 3.644531 -5.90625 C 3.121094 -5.90625 2.722656 -5.660156 2.453125 -5.160156 C 2.179688 -4.664062 2.042969 -3.960938 2.042969 -3.054688 C 2.042969 -2.671875 2.074219 -2.304688 2.132812 -1.964844 C 2.191406 -1.621094 2.285156 -1.324219 2.414062 -1.070312 C 2.542969 -0.8125 2.707031 -0.609375 2.90625 -0.46875 C 3.109375 -0.324219 3.355469 -0.25 3.644531 -0.25 C 3.933594 -0.25 4.179688 -0.324219 4.382812 -0.46875 C 4.589844 -0.613281 4.753906 -0.8125 4.875 -1.066406 Z "/>
</g>
</g>
</defs>
<g fill="rgb(100%, 75.686275%, 2.745098%)" fill-opacity="1">
<use xlink:href="#glyph-0-0" x="30" y="28.150391"/>
</g>
</svg>
